G04 #@! TF.GenerationSoftware,KiCad,Pcbnew,(2017-09-22 revision df472e6)-master*
G04 #@! TF.CreationDate,2018-05-12T20:12:06-07:00*
G04 #@! TF.ProjectId,trswitch,74727377697463682E6B696361645F70,rev?*
G04 #@! TF.SameCoordinates,Original*
G04 #@! TF.FileFunction,Soldermask,Top*
G04 #@! TF.FilePolarity,Negative*
%FSLAX46Y46*%
G04 Gerber Fmt 4.6, Leading zero omitted, Abs format (unit mm)*
G04 Created by KiCad (PCBNEW (2017-09-22 revision df472e6)-master) date Sat May 12 20:12:06 2018*
%MOMM*%
%LPD*%
G01*
G04 APERTURE LIST*
%ADD10R,2.000000X1.600000*%
%ADD11R,1.600000X2.000000*%
%ADD12C,1.540000*%
%ADD13R,1.727200X2.032000*%
%ADD14O,1.727200X2.032000*%
%ADD15R,0.900000X1.700000*%
%ADD16O,1.501140X0.899160*%
%ADD17C,3.048000*%
%ADD18R,3.500120X1.800860*%
%ADD19R,1.800860X3.500120*%
%ADD20R,1.700000X0.900000*%
%ADD21C,3.300000*%
%ADD22C,2.000000*%
%ADD23C,6.000000*%
G04 APERTURE END LIST*
D10*
X145320000Y-96266000D03*
X149320000Y-96266000D03*
D11*
X183896000Y-101886000D03*
X183896000Y-105886000D03*
D10*
X165068000Y-108458000D03*
X161068000Y-108458000D03*
D11*
X121158000Y-103346000D03*
X121158000Y-99346000D03*
D10*
X180626000Y-96012000D03*
X184626000Y-96012000D03*
D11*
X178816000Y-101886000D03*
X178816000Y-105886000D03*
X169418000Y-115538000D03*
X169418000Y-111538000D03*
D10*
X108426000Y-100330000D03*
X104426000Y-100330000D03*
X169958000Y-100330000D03*
X173958000Y-100330000D03*
D12*
X121158000Y-111760000D03*
X124358000Y-111760000D03*
X126558000Y-111760000D03*
X128758000Y-111760000D03*
X128818000Y-108560000D03*
X126558000Y-108560000D03*
X124358000Y-108560000D03*
X121158000Y-108560000D03*
X164084000Y-104394000D03*
X164084000Y-101194000D03*
X164084000Y-98994000D03*
X164084000Y-96794000D03*
X160884000Y-96734000D03*
X160884000Y-98994000D03*
X160884000Y-101194000D03*
X160884000Y-104394000D03*
X139090000Y-95758000D03*
X139090000Y-98958000D03*
X139090000Y-101158000D03*
X139090000Y-103418000D03*
X135890000Y-103358000D03*
X135890000Y-101158000D03*
X135890000Y-98958000D03*
X135890000Y-95758000D03*
D13*
X157988000Y-112522000D03*
D14*
X155448000Y-112522000D03*
X152908000Y-112522000D03*
D13*
X186300000Y-118800000D03*
D14*
X183760000Y-118800000D03*
X181220000Y-118800000D03*
X178680000Y-118800000D03*
X176140000Y-118800000D03*
X173600000Y-118800000D03*
D15*
X162126000Y-112014000D03*
X165026000Y-112014000D03*
X157406000Y-107950000D03*
X154506000Y-107950000D03*
X147648000Y-104394000D03*
X150548000Y-104394000D03*
D16*
X148082000Y-109220000D03*
X148082000Y-110490000D03*
X148082000Y-107950000D03*
X154178000Y-100584000D03*
X154178000Y-103124000D03*
X154178000Y-101854000D03*
D17*
X110998000Y-111760000D03*
X105918000Y-111760000D03*
X105918000Y-116840000D03*
X110998000Y-116840000D03*
X108458000Y-114300000D03*
X138430000Y-114300000D03*
X140970000Y-116840000D03*
X135890000Y-116840000D03*
X135890000Y-111760000D03*
X140970000Y-111760000D03*
D18*
X168696640Y-104394000D03*
X173695360Y-104394000D03*
D19*
X126238000Y-101051360D03*
X126238000Y-96052640D03*
D18*
X125181360Y-117094000D03*
X120182640Y-117094000D03*
D20*
X129794000Y-118544000D03*
X129794000Y-115644000D03*
D21*
X174370000Y-75310000D03*
D22*
X177800000Y-78740000D03*
D23*
X186918600Y-87858600D03*
X186918600Y-69621400D03*
X168681400Y-87858600D03*
X168681400Y-69621400D03*
D21*
X174370000Y-82170000D03*
X181230000Y-82170000D03*
X181230000Y-75310000D03*
X149480000Y-75310000D03*
X149480000Y-82170000D03*
X142620000Y-82170000D03*
D23*
X136931400Y-69621400D03*
X136931400Y-87858600D03*
X155168600Y-69621400D03*
X155168600Y-87858600D03*
D22*
X146050000Y-78740000D03*
D21*
X142620000Y-75310000D03*
X110870000Y-75310000D03*
D22*
X114300000Y-78740000D03*
D23*
X123418600Y-87858600D03*
X123418600Y-69621400D03*
X105181400Y-87858600D03*
X105181400Y-69621400D03*
D21*
X110870000Y-82170000D03*
X117730000Y-82170000D03*
X117730000Y-75310000D03*
M02*
