G04 #@! TF.GenerationSoftware,KiCad,Pcbnew,(2017-09-22 revision df472e6)-master*
G04 #@! TF.CreationDate,2018-05-12T20:12:06-07:00*
G04 #@! TF.ProjectId,trswitch,74727377697463682E6B696361645F70,rev?*
G04 #@! TF.SameCoordinates,Original*
G04 #@! TF.FileFunction,Copper,L2,Bot,Signal*
G04 #@! TF.FilePolarity,Positive*
%FSLAX46Y46*%
G04 Gerber Fmt 4.6, Leading zero omitted, Abs format (unit mm)*
G04 Created by KiCad (PCBNEW (2017-09-22 revision df472e6)-master) date Sat May 12 20:12:06 2018*
%MOMM*%
%LPD*%
G01*
G04 APERTURE LIST*
%ADD10C,1.540000*%
%ADD11R,1.727200X2.032000*%
%ADD12O,1.727200X2.032000*%
%ADD13O,1.501140X0.899160*%
%ADD14C,3.048000*%
%ADD15C,3.300000*%
%ADD16C,2.000000*%
%ADD17C,6.000000*%
%ADD18C,0.800000*%
%ADD19C,0.250000*%
%ADD20C,1.500000*%
%ADD21C,0.254000*%
G04 APERTURE END LIST*
D10*
X121158000Y-111760000D03*
X124358000Y-111760000D03*
X126558000Y-111760000D03*
X128758000Y-111760000D03*
X128818000Y-108560000D03*
X126558000Y-108560000D03*
X124358000Y-108560000D03*
X121158000Y-108560000D03*
X164084000Y-104394000D03*
X164084000Y-101194000D03*
X164084000Y-98994000D03*
X164084000Y-96794000D03*
X160884000Y-96734000D03*
X160884000Y-98994000D03*
X160884000Y-101194000D03*
X160884000Y-104394000D03*
X139090000Y-95758000D03*
X139090000Y-98958000D03*
X139090000Y-101158000D03*
X139090000Y-103418000D03*
X135890000Y-103358000D03*
X135890000Y-101158000D03*
X135890000Y-98958000D03*
X135890000Y-95758000D03*
D11*
X157988000Y-112522000D03*
D12*
X155448000Y-112522000D03*
X152908000Y-112522000D03*
D11*
X186300000Y-118800000D03*
D12*
X183760000Y-118800000D03*
X181220000Y-118800000D03*
X178680000Y-118800000D03*
X176140000Y-118800000D03*
X173600000Y-118800000D03*
D13*
X148082000Y-109220000D03*
X148082000Y-110490000D03*
X148082000Y-107950000D03*
X154178000Y-100584000D03*
X154178000Y-103124000D03*
X154178000Y-101854000D03*
D14*
X110998000Y-111760000D03*
X105918000Y-111760000D03*
X105918000Y-116840000D03*
X110998000Y-116840000D03*
X108458000Y-114300000D03*
X138430000Y-114300000D03*
X140970000Y-116840000D03*
X135890000Y-116840000D03*
X135890000Y-111760000D03*
X140970000Y-111760000D03*
D15*
X174370000Y-75310000D03*
D16*
X177800000Y-78740000D03*
D17*
X186918600Y-87858600D03*
X186918600Y-69621400D03*
X168681400Y-87858600D03*
X168681400Y-69621400D03*
D15*
X174370000Y-82170000D03*
X181230000Y-82170000D03*
X181230000Y-75310000D03*
X149480000Y-75310000D03*
X149480000Y-82170000D03*
X142620000Y-82170000D03*
D17*
X136931400Y-69621400D03*
X136931400Y-87858600D03*
X155168600Y-69621400D03*
X155168600Y-87858600D03*
D16*
X146050000Y-78740000D03*
D15*
X142620000Y-75310000D03*
X110870000Y-75310000D03*
D16*
X114300000Y-78740000D03*
D17*
X123418600Y-87858600D03*
X123418600Y-69621400D03*
X105181400Y-87858600D03*
X105181400Y-69621400D03*
D15*
X110870000Y-82170000D03*
X117730000Y-82170000D03*
X117730000Y-75310000D03*
D18*
X128016000Y-114046000D03*
D19*
X150373000Y-107041000D02*
X139090000Y-95758000D01*
X150373000Y-111881200D02*
X150373000Y-107041000D01*
X153852500Y-115360700D02*
X150373000Y-111881200D01*
X174571900Y-115360700D02*
X153852500Y-115360700D01*
X177491100Y-118279900D02*
X174571900Y-115360700D01*
X177491100Y-118800000D02*
X177491100Y-118279900D01*
X178680000Y-118800000D02*
X177491100Y-118800000D01*
X140970000Y-111760000D02*
X140970000Y-116840000D01*
X135890000Y-111760000D02*
X135890000Y-116840000D01*
X105918000Y-116840000D02*
X105918000Y-111760000D01*
X154178000Y-88849200D02*
X154178000Y-100584000D01*
X155168600Y-87858600D02*
X154178000Y-88849200D01*
X105181400Y-69621400D02*
X105181400Y-87858600D01*
X136931400Y-69621400D02*
X136931400Y-87858600D01*
X168681400Y-69621400D02*
X168681400Y-87858600D01*
X152908000Y-100778100D02*
X153102100Y-100584000D01*
X152908000Y-112522000D02*
X152908000Y-100778100D01*
X154178000Y-100584000D02*
X153102100Y-100584000D01*
X182571100Y-118279900D02*
X182571100Y-118800000D01*
X167415200Y-103124000D02*
X182571100Y-118279900D01*
X154178000Y-103124000D02*
X167415200Y-103124000D01*
X183760000Y-118800000D02*
X182571100Y-118800000D01*
X165426900Y-108936900D02*
X160884000Y-104394000D01*
X170688100Y-108936900D02*
X165426900Y-108936900D01*
X180031100Y-118279900D02*
X170688100Y-108936900D01*
X180031100Y-118800000D02*
X180031100Y-118279900D01*
X181220000Y-118800000D02*
X180031100Y-118800000D01*
X148082000Y-106349900D02*
X148082000Y-107950000D01*
X137490100Y-95758000D02*
X148082000Y-106349900D01*
X135890000Y-95758000D02*
X137490100Y-95758000D01*
D20*
X121818000Y-114300000D02*
X124358000Y-111760000D01*
X108458000Y-114300000D02*
X121818000Y-114300000D01*
X124358000Y-108560000D02*
X124358000Y-111760000D01*
X126558000Y-108560000D02*
X126558000Y-111760000D01*
X126558000Y-108323900D02*
X126558000Y-108560000D01*
X131523900Y-103358000D02*
X126558000Y-108323900D01*
X135890000Y-103358000D02*
X131523900Y-103358000D01*
X164330700Y-101194000D02*
X164084000Y-101194000D01*
X177800000Y-87724700D02*
X164330700Y-101194000D01*
X177800000Y-78740000D02*
X177800000Y-87724700D01*
X160884000Y-87984400D02*
X160884000Y-96734000D01*
X151639600Y-78740000D02*
X160884000Y-87984400D01*
X146050000Y-78740000D02*
X151639600Y-78740000D01*
X131117700Y-101158000D02*
X135890000Y-101158000D01*
X114300000Y-84340300D02*
X131117700Y-101158000D01*
X114300000Y-78740000D02*
X114300000Y-84340300D01*
D19*
X128016000Y-114046000D02*
X128778000Y-113284000D01*
X128778000Y-113284000D02*
X130048000Y-113284000D01*
X130048000Y-113284000D02*
X130810000Y-112522000D01*
X130810000Y-112522000D02*
X130810000Y-110552000D01*
X130810000Y-110552000D02*
X128818000Y-108560000D01*
D21*
G36*
X196723000Y-64388668D02*
X196723000Y-123061663D01*
X99949000Y-122048323D01*
X99949000Y-118371307D01*
X104566298Y-118371307D01*
X104729011Y-118692568D01*
X105528464Y-119006556D01*
X106387221Y-118990706D01*
X107106989Y-118692568D01*
X107269702Y-118371307D01*
X109646298Y-118371307D01*
X109809011Y-118692568D01*
X110608464Y-119006556D01*
X111467221Y-118990706D01*
X112186989Y-118692568D01*
X112349702Y-118371307D01*
X134538298Y-118371307D01*
X134701011Y-118692568D01*
X135500464Y-119006556D01*
X136359221Y-118990706D01*
X137078989Y-118692568D01*
X137241702Y-118371307D01*
X139618298Y-118371307D01*
X139781011Y-118692568D01*
X140580464Y-119006556D01*
X141439221Y-118990706D01*
X142158989Y-118692568D01*
X142321702Y-118371307D01*
X140970000Y-117019605D01*
X139618298Y-118371307D01*
X137241702Y-118371307D01*
X135890000Y-117019605D01*
X134538298Y-118371307D01*
X112349702Y-118371307D01*
X110998000Y-117019605D01*
X109646298Y-118371307D01*
X107269702Y-118371307D01*
X105918000Y-117019605D01*
X104566298Y-118371307D01*
X99949000Y-118371307D01*
X99949000Y-116450464D01*
X103751444Y-116450464D01*
X103767294Y-117309221D01*
X104065432Y-118028989D01*
X104386693Y-118191702D01*
X105738395Y-116840000D01*
X104386693Y-115488298D01*
X104065432Y-115651011D01*
X103751444Y-116450464D01*
X99949000Y-116450464D01*
X99949000Y-113291307D01*
X104566298Y-113291307D01*
X104729011Y-113612568D01*
X105528464Y-113926556D01*
X106299338Y-113912328D01*
X106298673Y-114673608D01*
X105448779Y-114689294D01*
X104729011Y-114987432D01*
X104566298Y-115308693D01*
X105918000Y-116660395D01*
X105932143Y-116646253D01*
X106111748Y-116825858D01*
X106097605Y-116840000D01*
X107449307Y-118191702D01*
X107770568Y-118028989D01*
X108084556Y-117229536D01*
X108070328Y-116458662D01*
X108831608Y-116459327D01*
X108847294Y-117309221D01*
X109145432Y-118028989D01*
X109466693Y-118191702D01*
X110818395Y-116840000D01*
X110804253Y-116825858D01*
X110983858Y-116646253D01*
X110998000Y-116660395D01*
X111012143Y-116646253D01*
X111191748Y-116825858D01*
X111177605Y-116840000D01*
X112529307Y-118191702D01*
X112850568Y-118028989D01*
X113164556Y-117229536D01*
X113150177Y-116450464D01*
X133723444Y-116450464D01*
X133739294Y-117309221D01*
X134037432Y-118028989D01*
X134358693Y-118191702D01*
X135710395Y-116840000D01*
X134358693Y-115488298D01*
X134037432Y-115651011D01*
X133723444Y-116450464D01*
X113150177Y-116450464D01*
X113148706Y-116370779D01*
X112864647Y-115685000D01*
X121818000Y-115685000D01*
X122348017Y-115579573D01*
X122797343Y-115279343D01*
X125105217Y-112971469D01*
X125152829Y-112951796D01*
X125458186Y-112646972D01*
X125761092Y-112950407D01*
X126277302Y-113164756D01*
X126836246Y-113165244D01*
X127352829Y-112951796D01*
X127658186Y-112646972D01*
X127961092Y-112950407D01*
X128014581Y-112972617D01*
X127976233Y-113010965D01*
X127811029Y-113010821D01*
X127430485Y-113168058D01*
X127139081Y-113458954D01*
X126981180Y-113839223D01*
X126980821Y-114250971D01*
X127138058Y-114631515D01*
X127428954Y-114922919D01*
X127809223Y-115080820D01*
X128220971Y-115081179D01*
X128601515Y-114923942D01*
X128892919Y-114633046D01*
X129050820Y-114252777D01*
X129050966Y-114085836D01*
X129092802Y-114044000D01*
X130048000Y-114044000D01*
X130338839Y-113986148D01*
X130585401Y-113821401D01*
X131115495Y-113291307D01*
X134538298Y-113291307D01*
X134701011Y-113612568D01*
X135500464Y-113926556D01*
X136271338Y-113912328D01*
X136270673Y-114673608D01*
X135420779Y-114689294D01*
X134701011Y-114987432D01*
X134538298Y-115308693D01*
X135890000Y-116660395D01*
X135904143Y-116646253D01*
X136083748Y-116825858D01*
X136069605Y-116840000D01*
X137421307Y-118191702D01*
X137742568Y-118028989D01*
X138056556Y-117229536D01*
X138042328Y-116458662D01*
X138803608Y-116459327D01*
X138819294Y-117309221D01*
X139117432Y-118028989D01*
X139438693Y-118191702D01*
X140790395Y-116840000D01*
X141149605Y-116840000D01*
X142501307Y-118191702D01*
X142822568Y-118028989D01*
X143136556Y-117229536D01*
X143120706Y-116370779D01*
X142822568Y-115651011D01*
X142501307Y-115488298D01*
X141149605Y-116840000D01*
X140790395Y-116840000D01*
X140776253Y-116825858D01*
X140955858Y-116646253D01*
X140970000Y-116660395D01*
X142321702Y-115308693D01*
X142158989Y-114987432D01*
X141359536Y-114673444D01*
X140588662Y-114687672D01*
X140589327Y-113926392D01*
X141439221Y-113910706D01*
X142158989Y-113612568D01*
X142321702Y-113291307D01*
X140970000Y-111939605D01*
X140955858Y-111953748D01*
X140776253Y-111774143D01*
X140790395Y-111760000D01*
X141149605Y-111760000D01*
X142501307Y-113111702D01*
X142822568Y-112948989D01*
X143136556Y-112149536D01*
X143120706Y-111290779D01*
X142822568Y-110571011D01*
X142501307Y-110408298D01*
X141149605Y-111760000D01*
X140790395Y-111760000D01*
X139438693Y-110408298D01*
X139117432Y-110571011D01*
X138803444Y-111370464D01*
X138817672Y-112141338D01*
X138056392Y-112140673D01*
X138040706Y-111290779D01*
X137742568Y-110571011D01*
X137421307Y-110408298D01*
X136069605Y-111760000D01*
X136083748Y-111774143D01*
X135904143Y-111953748D01*
X135890000Y-111939605D01*
X134538298Y-113291307D01*
X131115495Y-113291307D01*
X131347401Y-113059401D01*
X131512148Y-112812839D01*
X131570000Y-112522000D01*
X131570000Y-111370464D01*
X133723444Y-111370464D01*
X133739294Y-112229221D01*
X134037432Y-112948989D01*
X134358693Y-113111702D01*
X135710395Y-111760000D01*
X134358693Y-110408298D01*
X134037432Y-110571011D01*
X133723444Y-111370464D01*
X131570000Y-111370464D01*
X131570000Y-110552000D01*
X131512148Y-110261161D01*
X131512148Y-110261160D01*
X131490455Y-110228693D01*
X134538298Y-110228693D01*
X135890000Y-111580395D01*
X137241702Y-110228693D01*
X139618298Y-110228693D01*
X140970000Y-111580395D01*
X142321702Y-110228693D01*
X142158989Y-109907432D01*
X141359536Y-109593444D01*
X140500779Y-109609294D01*
X139781011Y-109907432D01*
X139618298Y-110228693D01*
X137241702Y-110228693D01*
X137078989Y-109907432D01*
X136279536Y-109593444D01*
X135420779Y-109609294D01*
X134701011Y-109907432D01*
X134538298Y-110228693D01*
X131490455Y-110228693D01*
X131347401Y-110014599D01*
X130208304Y-108875502D01*
X130222756Y-108840698D01*
X130223244Y-108281754D01*
X130009796Y-107765171D01*
X129614908Y-107369593D01*
X129513218Y-107327368D01*
X132097586Y-104743000D01*
X135561724Y-104743000D01*
X135609302Y-104762756D01*
X136168246Y-104763244D01*
X136684829Y-104549796D01*
X137080407Y-104154908D01*
X137294756Y-103638698D01*
X137295244Y-103079754D01*
X137081796Y-102563171D01*
X136776972Y-102257814D01*
X137080407Y-101954908D01*
X137294756Y-101438698D01*
X137295244Y-100879754D01*
X137081796Y-100363171D01*
X136776972Y-100057814D01*
X137080407Y-99754908D01*
X137294756Y-99238698D01*
X137295244Y-98679754D01*
X137081796Y-98163171D01*
X136686908Y-97767593D01*
X136170698Y-97553244D01*
X135611754Y-97552756D01*
X135095171Y-97766204D01*
X134699593Y-98161092D01*
X134485244Y-98677302D01*
X134484756Y-99236246D01*
X134698204Y-99752829D01*
X134718340Y-99773000D01*
X131691386Y-99773000D01*
X127954632Y-96036246D01*
X134484756Y-96036246D01*
X134698204Y-96552829D01*
X135093092Y-96948407D01*
X135609302Y-97162756D01*
X136168246Y-97163244D01*
X136684829Y-96949796D01*
X137080407Y-96554908D01*
X137095733Y-96518000D01*
X137175298Y-96518000D01*
X138385980Y-97728682D01*
X138295171Y-97766204D01*
X137899593Y-98161092D01*
X137685244Y-98677302D01*
X137684756Y-99236246D01*
X137898204Y-99752829D01*
X138203028Y-100058186D01*
X137899593Y-100361092D01*
X137685244Y-100877302D01*
X137684756Y-101436246D01*
X137898204Y-101952829D01*
X138233028Y-102288238D01*
X137899593Y-102621092D01*
X137685244Y-103137302D01*
X137684756Y-103696246D01*
X137898204Y-104212829D01*
X138293092Y-104608407D01*
X138809302Y-104822756D01*
X139368246Y-104823244D01*
X139884829Y-104609796D01*
X140280407Y-104214908D01*
X140494756Y-103698698D01*
X140495244Y-103139754D01*
X140281796Y-102623171D01*
X139946972Y-102287762D01*
X140280407Y-101954908D01*
X140494756Y-101438698D01*
X140495244Y-100879754D01*
X140281796Y-100363171D01*
X139976972Y-100057814D01*
X140280407Y-99754908D01*
X140319077Y-99661779D01*
X147322000Y-106664702D01*
X147322000Y-106959214D01*
X146986951Y-107183086D01*
X146751844Y-107534949D01*
X146669285Y-107950000D01*
X146751844Y-108365051D01*
X146898809Y-108585000D01*
X146751844Y-108804949D01*
X146669285Y-109220000D01*
X146751844Y-109635051D01*
X146898809Y-109855000D01*
X146751844Y-110074949D01*
X146669285Y-110490000D01*
X146751844Y-110905051D01*
X146986951Y-111256914D01*
X147338814Y-111492021D01*
X147753865Y-111574580D01*
X148410135Y-111574580D01*
X148825186Y-111492021D01*
X149177049Y-111256914D01*
X149412156Y-110905051D01*
X149494715Y-110490000D01*
X149412156Y-110074949D01*
X149265191Y-109855000D01*
X149412156Y-109635051D01*
X149494715Y-109220000D01*
X149412156Y-108804949D01*
X149265191Y-108585000D01*
X149412156Y-108365051D01*
X149494715Y-107950000D01*
X149412156Y-107534949D01*
X149177049Y-107183086D01*
X148842000Y-106959214D01*
X148842000Y-106584802D01*
X149613000Y-107355802D01*
X149613000Y-111881200D01*
X149670852Y-112172039D01*
X149835599Y-112418601D01*
X153315099Y-115898101D01*
X153561661Y-116062848D01*
X153852500Y-116120700D01*
X174257098Y-116120700D01*
X175472627Y-117336229D01*
X175237964Y-117449268D01*
X174866461Y-117865069D01*
X174659670Y-117555585D01*
X174173489Y-117230729D01*
X173600000Y-117116655D01*
X173026511Y-117230729D01*
X172540330Y-117555585D01*
X172215474Y-118041766D01*
X172101400Y-118615255D01*
X172101400Y-118984745D01*
X172215474Y-119558234D01*
X172540330Y-120044415D01*
X173026511Y-120369271D01*
X173600000Y-120483345D01*
X174173489Y-120369271D01*
X174659670Y-120044415D01*
X174866461Y-119734931D01*
X175237964Y-120150732D01*
X175765209Y-120404709D01*
X175780974Y-120407358D01*
X176013000Y-120286217D01*
X176013000Y-118927000D01*
X175993000Y-118927000D01*
X175993000Y-118673000D01*
X176013000Y-118673000D01*
X176013000Y-118653000D01*
X176267000Y-118653000D01*
X176267000Y-118673000D01*
X176287000Y-118673000D01*
X176287000Y-118927000D01*
X176267000Y-118927000D01*
X176267000Y-120286217D01*
X176499026Y-120407358D01*
X176514791Y-120404709D01*
X177042036Y-120150732D01*
X177413539Y-119734931D01*
X177620330Y-120044415D01*
X178106511Y-120369271D01*
X178680000Y-120483345D01*
X179253489Y-120369271D01*
X179739670Y-120044415D01*
X179950000Y-119729634D01*
X180160330Y-120044415D01*
X180646511Y-120369271D01*
X181220000Y-120483345D01*
X181793489Y-120369271D01*
X182279670Y-120044415D01*
X182490000Y-119729634D01*
X182700330Y-120044415D01*
X183186511Y-120369271D01*
X183760000Y-120483345D01*
X184333489Y-120369271D01*
X184819670Y-120044415D01*
X184831016Y-120027434D01*
X184838243Y-120063765D01*
X184978591Y-120273809D01*
X185188635Y-120414157D01*
X185436400Y-120463440D01*
X187163600Y-120463440D01*
X187411365Y-120414157D01*
X187621409Y-120273809D01*
X187761757Y-120063765D01*
X187811040Y-119816000D01*
X187811040Y-117784000D01*
X187761757Y-117536235D01*
X187621409Y-117326191D01*
X187411365Y-117185843D01*
X187163600Y-117136560D01*
X185436400Y-117136560D01*
X185188635Y-117185843D01*
X184978591Y-117326191D01*
X184838243Y-117536235D01*
X184831016Y-117572566D01*
X184819670Y-117555585D01*
X184333489Y-117230729D01*
X183760000Y-117116655D01*
X183186511Y-117230729D01*
X182832964Y-117466962D01*
X167952601Y-102586599D01*
X167706039Y-102421852D01*
X167415200Y-102364000D01*
X165024705Y-102364000D01*
X165310043Y-102173343D01*
X177028156Y-90455230D01*
X184501575Y-90455230D01*
X184844166Y-90929877D01*
X186177400Y-91489942D01*
X187623475Y-91497168D01*
X188962239Y-90950454D01*
X188993034Y-90929877D01*
X189335625Y-90455230D01*
X186918600Y-88038205D01*
X184501575Y-90455230D01*
X177028156Y-90455230D01*
X178779343Y-88704043D01*
X178873267Y-88563475D01*
X183280032Y-88563475D01*
X183826746Y-89902239D01*
X183847323Y-89933034D01*
X184321970Y-90275625D01*
X186738995Y-87858600D01*
X187098205Y-87858600D01*
X189515230Y-90275625D01*
X189989877Y-89933034D01*
X190549942Y-88599800D01*
X190557168Y-87153725D01*
X190010454Y-85814961D01*
X189989877Y-85784166D01*
X189515230Y-85441575D01*
X187098205Y-87858600D01*
X186738995Y-87858600D01*
X184321970Y-85441575D01*
X183847323Y-85784166D01*
X183287258Y-87117400D01*
X183280032Y-88563475D01*
X178873267Y-88563475D01*
X179079574Y-88254716D01*
X179185000Y-87724700D01*
X179185000Y-85261970D01*
X184501575Y-85261970D01*
X186918600Y-87678995D01*
X189335625Y-85261970D01*
X188993034Y-84787323D01*
X187659800Y-84227258D01*
X186213725Y-84220032D01*
X184874961Y-84766746D01*
X184844166Y-84787323D01*
X184501575Y-85261970D01*
X179185000Y-85261970D01*
X179185000Y-83792314D01*
X179787291Y-83792314D01*
X179965379Y-84126666D01*
X180810426Y-84461673D01*
X181719350Y-84447794D01*
X182494621Y-84126666D01*
X182672709Y-83792314D01*
X181230000Y-82349605D01*
X179787291Y-83792314D01*
X179185000Y-83792314D01*
X179185000Y-83221364D01*
X179273334Y-83434621D01*
X179607686Y-83612709D01*
X181050395Y-82170000D01*
X181409605Y-82170000D01*
X182852314Y-83612709D01*
X183186666Y-83434621D01*
X183521673Y-82589574D01*
X183507794Y-81680650D01*
X183186666Y-80905379D01*
X182852314Y-80727291D01*
X181409605Y-82170000D01*
X181050395Y-82170000D01*
X179607686Y-80727291D01*
X179273334Y-80905379D01*
X179185000Y-81128199D01*
X179185000Y-80547686D01*
X179787291Y-80547686D01*
X181230000Y-81990395D01*
X182672709Y-80547686D01*
X182494621Y-80213334D01*
X181649574Y-79878327D01*
X180740650Y-79892206D01*
X179965379Y-80213334D01*
X179787291Y-80547686D01*
X179185000Y-80547686D01*
X179185000Y-79667641D01*
X179185278Y-79667363D01*
X179434716Y-79066648D01*
X179435284Y-78416205D01*
X179186894Y-77815057D01*
X178727363Y-77354722D01*
X178126648Y-77105284D01*
X177476205Y-77104716D01*
X176875057Y-77353106D01*
X176414722Y-77812637D01*
X176165284Y-78413352D01*
X176164716Y-79063795D01*
X176413106Y-79664943D01*
X176415000Y-79666840D01*
X176415000Y-81118636D01*
X176326666Y-80905379D01*
X175992314Y-80727291D01*
X174549605Y-82170000D01*
X175992314Y-83612709D01*
X176326666Y-83434621D01*
X176415000Y-83211801D01*
X176415000Y-87151014D01*
X165302417Y-98263597D01*
X165275796Y-98199171D01*
X164970972Y-97893814D01*
X165274407Y-97590908D01*
X165488756Y-97074698D01*
X165489244Y-96515754D01*
X165275796Y-95999171D01*
X164880908Y-95603593D01*
X164364698Y-95389244D01*
X163805754Y-95388756D01*
X163289171Y-95602204D01*
X162893593Y-95997092D01*
X162679244Y-96513302D01*
X162678756Y-97072246D01*
X162892204Y-97588829D01*
X163197028Y-97894186D01*
X162893593Y-98197092D01*
X162679244Y-98713302D01*
X162678756Y-99272246D01*
X162892204Y-99788829D01*
X163197028Y-100094186D01*
X162893593Y-100397092D01*
X162679244Y-100913302D01*
X162678756Y-101472246D01*
X162892204Y-101988829D01*
X163266721Y-102364000D01*
X161700663Y-102364000D01*
X162074407Y-101990908D01*
X162288756Y-101474698D01*
X162289244Y-100915754D01*
X162075796Y-100399171D01*
X161770972Y-100093814D01*
X162074407Y-99790908D01*
X162288756Y-99274698D01*
X162289244Y-98715754D01*
X162075796Y-98199171D01*
X161740972Y-97863762D01*
X162074407Y-97530908D01*
X162288756Y-97014698D01*
X162289244Y-96455754D01*
X162269000Y-96406760D01*
X162269000Y-90455230D01*
X166264375Y-90455230D01*
X166606966Y-90929877D01*
X167940200Y-91489942D01*
X169386275Y-91497168D01*
X170725039Y-90950454D01*
X170755834Y-90929877D01*
X171098425Y-90455230D01*
X168681400Y-88038205D01*
X166264375Y-90455230D01*
X162269000Y-90455230D01*
X162269000Y-88563475D01*
X165042832Y-88563475D01*
X165589546Y-89902239D01*
X165610123Y-89933034D01*
X166084770Y-90275625D01*
X168501795Y-87858600D01*
X168861005Y-87858600D01*
X171278030Y-90275625D01*
X171752677Y-89933034D01*
X172312742Y-88599800D01*
X172319968Y-87153725D01*
X171773254Y-85814961D01*
X171752677Y-85784166D01*
X171278030Y-85441575D01*
X168861005Y-87858600D01*
X168501795Y-87858600D01*
X166084770Y-85441575D01*
X165610123Y-85784166D01*
X165050058Y-87117400D01*
X165042832Y-88563475D01*
X162269000Y-88563475D01*
X162269000Y-87984400D01*
X162163573Y-87454383D01*
X161863343Y-87005057D01*
X160120256Y-85261970D01*
X166264375Y-85261970D01*
X168681400Y-87678995D01*
X171098425Y-85261970D01*
X170755834Y-84787323D01*
X169422600Y-84227258D01*
X167976525Y-84220032D01*
X166637761Y-84766746D01*
X166606966Y-84787323D01*
X166264375Y-85261970D01*
X160120256Y-85261970D01*
X158650600Y-83792314D01*
X172927291Y-83792314D01*
X173105379Y-84126666D01*
X173950426Y-84461673D01*
X174859350Y-84447794D01*
X175634621Y-84126666D01*
X175812709Y-83792314D01*
X174370000Y-82349605D01*
X172927291Y-83792314D01*
X158650600Y-83792314D01*
X156608712Y-81750426D01*
X172078327Y-81750426D01*
X172092206Y-82659350D01*
X172413334Y-83434621D01*
X172747686Y-83612709D01*
X174190395Y-82170000D01*
X172747686Y-80727291D01*
X172413334Y-80905379D01*
X172078327Y-81750426D01*
X156608712Y-81750426D01*
X155405972Y-80547686D01*
X172927291Y-80547686D01*
X174370000Y-81990395D01*
X175812709Y-80547686D01*
X175634621Y-80213334D01*
X174789574Y-79878327D01*
X173880650Y-79892206D01*
X173105379Y-80213334D01*
X172927291Y-80547686D01*
X155405972Y-80547686D01*
X152618943Y-77760657D01*
X152169617Y-77460427D01*
X151639600Y-77355000D01*
X150531364Y-77355000D01*
X150744621Y-77266666D01*
X150922709Y-76932314D01*
X172927291Y-76932314D01*
X173105379Y-77266666D01*
X173950426Y-77601673D01*
X174859350Y-77587794D01*
X175634621Y-77266666D01*
X175812709Y-76932314D01*
X179787291Y-76932314D01*
X179965379Y-77266666D01*
X180810426Y-77601673D01*
X181719350Y-77587794D01*
X182494621Y-77266666D01*
X182672709Y-76932314D01*
X181230000Y-75489605D01*
X179787291Y-76932314D01*
X175812709Y-76932314D01*
X174370000Y-75489605D01*
X172927291Y-76932314D01*
X150922709Y-76932314D01*
X149480000Y-75489605D01*
X148037291Y-76932314D01*
X148215379Y-77266666D01*
X148438199Y-77355000D01*
X146977641Y-77355000D01*
X146977363Y-77354722D01*
X146376648Y-77105284D01*
X145726205Y-77104716D01*
X145125057Y-77353106D01*
X144664722Y-77812637D01*
X144415284Y-78413352D01*
X144414716Y-79063795D01*
X144663106Y-79664943D01*
X145122637Y-80125278D01*
X145723352Y-80374716D01*
X146373795Y-80375284D01*
X146974943Y-80126894D01*
X146976840Y-80125000D01*
X148428636Y-80125000D01*
X148215379Y-80213334D01*
X148037291Y-80547686D01*
X149480000Y-81990395D01*
X150922709Y-80547686D01*
X150744621Y-80213334D01*
X150521801Y-80125000D01*
X151065914Y-80125000D01*
X155164447Y-84223533D01*
X154463725Y-84220032D01*
X153124961Y-84766746D01*
X153094166Y-84787323D01*
X152751575Y-85261970D01*
X155168600Y-87678995D01*
X155182743Y-87664853D01*
X155362348Y-87844458D01*
X155348205Y-87858600D01*
X157765230Y-90275625D01*
X158239877Y-89933034D01*
X158799942Y-88599800D01*
X158803625Y-87862711D01*
X159499000Y-88558086D01*
X159499000Y-96405724D01*
X159479244Y-96453302D01*
X159478756Y-97012246D01*
X159692204Y-97528829D01*
X160027028Y-97864238D01*
X159693593Y-98197092D01*
X159479244Y-98713302D01*
X159478756Y-99272246D01*
X159692204Y-99788829D01*
X159997028Y-100094186D01*
X159693593Y-100397092D01*
X159479244Y-100913302D01*
X159478756Y-101472246D01*
X159692204Y-101988829D01*
X160066721Y-102364000D01*
X155444713Y-102364000D01*
X155508156Y-102269051D01*
X155590715Y-101854000D01*
X155508156Y-101438949D01*
X155358359Y-101214762D01*
X155522981Y-100877935D01*
X155396068Y-100711000D01*
X154305000Y-100711000D01*
X154305000Y-100731000D01*
X154051000Y-100731000D01*
X154051000Y-100711000D01*
X152959932Y-100711000D01*
X152833019Y-100877935D01*
X152997641Y-101214762D01*
X152847844Y-101438949D01*
X152765285Y-101854000D01*
X152847844Y-102269051D01*
X152994809Y-102489000D01*
X152847844Y-102708949D01*
X152765285Y-103124000D01*
X152847844Y-103539051D01*
X153082951Y-103890914D01*
X153434814Y-104126021D01*
X153849865Y-104208580D01*
X154506135Y-104208580D01*
X154921186Y-104126021D01*
X155273049Y-103890914D01*
X155277669Y-103884000D01*
X159574458Y-103884000D01*
X159479244Y-104113302D01*
X159478756Y-104672246D01*
X159692204Y-105188829D01*
X160087092Y-105584407D01*
X160603302Y-105798756D01*
X161162246Y-105799244D01*
X161199181Y-105783983D01*
X164889499Y-109474301D01*
X165136061Y-109639048D01*
X165426900Y-109696900D01*
X170373298Y-109696900D01*
X177986989Y-117310591D01*
X177752964Y-117466962D01*
X175109301Y-114823299D01*
X174862739Y-114658552D01*
X174571900Y-114600700D01*
X154167302Y-114600700D01*
X153559850Y-113993248D01*
X153810036Y-113872732D01*
X154178000Y-113460892D01*
X154545964Y-113872732D01*
X155073209Y-114126709D01*
X155088974Y-114129358D01*
X155321000Y-114008217D01*
X155321000Y-112649000D01*
X153035000Y-112649000D01*
X153035000Y-112669000D01*
X152781000Y-112669000D01*
X152781000Y-112649000D01*
X152761000Y-112649000D01*
X152761000Y-112395000D01*
X152781000Y-112395000D01*
X152781000Y-111035783D01*
X153035000Y-111035783D01*
X153035000Y-112395000D01*
X155321000Y-112395000D01*
X155321000Y-111035783D01*
X155575000Y-111035783D01*
X155575000Y-112395000D01*
X155595000Y-112395000D01*
X155595000Y-112649000D01*
X155575000Y-112649000D01*
X155575000Y-114008217D01*
X155807026Y-114129358D01*
X155822791Y-114126709D01*
X156350036Y-113872732D01*
X156508306Y-113695590D01*
X156526243Y-113785765D01*
X156666591Y-113995809D01*
X156876635Y-114136157D01*
X157124400Y-114185440D01*
X158851600Y-114185440D01*
X159099365Y-114136157D01*
X159309409Y-113995809D01*
X159449757Y-113785765D01*
X159499040Y-113538000D01*
X159499040Y-111506000D01*
X159449757Y-111258235D01*
X159309409Y-111048191D01*
X159099365Y-110907843D01*
X158851600Y-110858560D01*
X157124400Y-110858560D01*
X156876635Y-110907843D01*
X156666591Y-111048191D01*
X156526243Y-111258235D01*
X156508306Y-111348410D01*
X156350036Y-111171268D01*
X155822791Y-110917291D01*
X155807026Y-110914642D01*
X155575000Y-111035783D01*
X155321000Y-111035783D01*
X155088974Y-110914642D01*
X155073209Y-110917291D01*
X154545964Y-111171268D01*
X154178000Y-111583108D01*
X153810036Y-111171268D01*
X153282791Y-110917291D01*
X153267026Y-110914642D01*
X153035000Y-111035783D01*
X152781000Y-111035783D01*
X152548974Y-110914642D01*
X152533209Y-110917291D01*
X152005964Y-111171268D01*
X151616046Y-111607680D01*
X151501564Y-111934962D01*
X151133000Y-111566398D01*
X151133000Y-107041000D01*
X151075148Y-106750161D01*
X150910401Y-106503599D01*
X144696867Y-100290065D01*
X152833019Y-100290065D01*
X152959932Y-100457000D01*
X154051000Y-100457000D01*
X154051000Y-99499420D01*
X154305000Y-99499420D01*
X154305000Y-100457000D01*
X155396068Y-100457000D01*
X155522981Y-100290065D01*
X155335706Y-99906889D01*
X155011373Y-99630580D01*
X154605990Y-99499420D01*
X154305000Y-99499420D01*
X154051000Y-99499420D01*
X153750010Y-99499420D01*
X153344627Y-99630580D01*
X153020294Y-99906889D01*
X152833019Y-100290065D01*
X144696867Y-100290065D01*
X140480304Y-96073502D01*
X140494756Y-96038698D01*
X140495244Y-95479754D01*
X140281796Y-94963171D01*
X139886908Y-94567593D01*
X139370698Y-94353244D01*
X138811754Y-94352756D01*
X138295171Y-94566204D01*
X137899593Y-94961092D01*
X137843021Y-95097333D01*
X137780939Y-95055852D01*
X137490100Y-94998000D01*
X137096187Y-94998000D01*
X137081796Y-94963171D01*
X136686908Y-94567593D01*
X136170698Y-94353244D01*
X135611754Y-94352756D01*
X135095171Y-94566204D01*
X134699593Y-94961092D01*
X134485244Y-95477302D01*
X134484756Y-96036246D01*
X127954632Y-96036246D01*
X123411999Y-91493613D01*
X124123475Y-91497168D01*
X125462239Y-90950454D01*
X125493034Y-90929877D01*
X125835625Y-90455230D01*
X134514375Y-90455230D01*
X134856966Y-90929877D01*
X136190200Y-91489942D01*
X137636275Y-91497168D01*
X138975039Y-90950454D01*
X139005834Y-90929877D01*
X139348425Y-90455230D01*
X152751575Y-90455230D01*
X153094166Y-90929877D01*
X154427400Y-91489942D01*
X155873475Y-91497168D01*
X157212239Y-90950454D01*
X157243034Y-90929877D01*
X157585625Y-90455230D01*
X155168600Y-88038205D01*
X152751575Y-90455230D01*
X139348425Y-90455230D01*
X136931400Y-88038205D01*
X134514375Y-90455230D01*
X125835625Y-90455230D01*
X123418600Y-88038205D01*
X123404458Y-88052348D01*
X123224853Y-87872743D01*
X123238995Y-87858600D01*
X123598205Y-87858600D01*
X126015230Y-90275625D01*
X126489877Y-89933034D01*
X127049942Y-88599800D01*
X127050123Y-88563475D01*
X133292832Y-88563475D01*
X133839546Y-89902239D01*
X133860123Y-89933034D01*
X134334770Y-90275625D01*
X136751795Y-87858600D01*
X137111005Y-87858600D01*
X139528030Y-90275625D01*
X140002677Y-89933034D01*
X140562742Y-88599800D01*
X140562923Y-88563475D01*
X151530032Y-88563475D01*
X152076746Y-89902239D01*
X152097323Y-89933034D01*
X152571970Y-90275625D01*
X154988995Y-87858600D01*
X152571970Y-85441575D01*
X152097323Y-85784166D01*
X151537258Y-87117400D01*
X151530032Y-88563475D01*
X140562923Y-88563475D01*
X140569968Y-87153725D01*
X140023254Y-85814961D01*
X140002677Y-85784166D01*
X139528030Y-85441575D01*
X137111005Y-87858600D01*
X136751795Y-87858600D01*
X134334770Y-85441575D01*
X133860123Y-85784166D01*
X133300058Y-87117400D01*
X133292832Y-88563475D01*
X127050123Y-88563475D01*
X127057168Y-87153725D01*
X126510454Y-85814961D01*
X126489877Y-85784166D01*
X126015230Y-85441575D01*
X123598205Y-87858600D01*
X123238995Y-87858600D01*
X120821970Y-85441575D01*
X120347323Y-85784166D01*
X119787258Y-87117400D01*
X119783522Y-87865136D01*
X117180356Y-85261970D01*
X121001575Y-85261970D01*
X123418600Y-87678995D01*
X125835625Y-85261970D01*
X134514375Y-85261970D01*
X136931400Y-87678995D01*
X139348425Y-85261970D01*
X139005834Y-84787323D01*
X137672600Y-84227258D01*
X136226525Y-84220032D01*
X134887761Y-84766746D01*
X134856966Y-84787323D01*
X134514375Y-85261970D01*
X125835625Y-85261970D01*
X125493034Y-84787323D01*
X124159800Y-84227258D01*
X122713725Y-84220032D01*
X121374961Y-84766746D01*
X121344166Y-84787323D01*
X121001575Y-85261970D01*
X117180356Y-85261970D01*
X115710700Y-83792314D01*
X116287291Y-83792314D01*
X116465379Y-84126666D01*
X117310426Y-84461673D01*
X118219350Y-84447794D01*
X118994621Y-84126666D01*
X119172709Y-83792314D01*
X141177291Y-83792314D01*
X141355379Y-84126666D01*
X142200426Y-84461673D01*
X143109350Y-84447794D01*
X143884621Y-84126666D01*
X144062709Y-83792314D01*
X148037291Y-83792314D01*
X148215379Y-84126666D01*
X149060426Y-84461673D01*
X149969350Y-84447794D01*
X150744621Y-84126666D01*
X150922709Y-83792314D01*
X149480000Y-82349605D01*
X148037291Y-83792314D01*
X144062709Y-83792314D01*
X142620000Y-82349605D01*
X141177291Y-83792314D01*
X119172709Y-83792314D01*
X117730000Y-82349605D01*
X116287291Y-83792314D01*
X115710700Y-83792314D01*
X115685000Y-83766614D01*
X115685000Y-83221364D01*
X115773334Y-83434621D01*
X116107686Y-83612709D01*
X117550395Y-82170000D01*
X117909605Y-82170000D01*
X119352314Y-83612709D01*
X119686666Y-83434621D01*
X120021673Y-82589574D01*
X120008860Y-81750426D01*
X140328327Y-81750426D01*
X140342206Y-82659350D01*
X140663334Y-83434621D01*
X140997686Y-83612709D01*
X142440395Y-82170000D01*
X142799605Y-82170000D01*
X144242314Y-83612709D01*
X144576666Y-83434621D01*
X144911673Y-82589574D01*
X144898860Y-81750426D01*
X147188327Y-81750426D01*
X147202206Y-82659350D01*
X147523334Y-83434621D01*
X147857686Y-83612709D01*
X149300395Y-82170000D01*
X149659605Y-82170000D01*
X151102314Y-83612709D01*
X151436666Y-83434621D01*
X151771673Y-82589574D01*
X151757794Y-81680650D01*
X151436666Y-80905379D01*
X151102314Y-80727291D01*
X149659605Y-82170000D01*
X149300395Y-82170000D01*
X147857686Y-80727291D01*
X147523334Y-80905379D01*
X147188327Y-81750426D01*
X144898860Y-81750426D01*
X144897794Y-81680650D01*
X144576666Y-80905379D01*
X144242314Y-80727291D01*
X142799605Y-82170000D01*
X142440395Y-82170000D01*
X140997686Y-80727291D01*
X140663334Y-80905379D01*
X140328327Y-81750426D01*
X120008860Y-81750426D01*
X120007794Y-81680650D01*
X119686666Y-80905379D01*
X119352314Y-80727291D01*
X117909605Y-82170000D01*
X117550395Y-82170000D01*
X116107686Y-80727291D01*
X115773334Y-80905379D01*
X115685000Y-81128199D01*
X115685000Y-80547686D01*
X116287291Y-80547686D01*
X117730000Y-81990395D01*
X119172709Y-80547686D01*
X141177291Y-80547686D01*
X142620000Y-81990395D01*
X144062709Y-80547686D01*
X143884621Y-80213334D01*
X143039574Y-79878327D01*
X142130650Y-79892206D01*
X141355379Y-80213334D01*
X141177291Y-80547686D01*
X119172709Y-80547686D01*
X118994621Y-80213334D01*
X118149574Y-79878327D01*
X117240650Y-79892206D01*
X116465379Y-80213334D01*
X116287291Y-80547686D01*
X115685000Y-80547686D01*
X115685000Y-79667641D01*
X115685278Y-79667363D01*
X115934716Y-79066648D01*
X115935284Y-78416205D01*
X115686894Y-77815057D01*
X115227363Y-77354722D01*
X114626648Y-77105284D01*
X113976205Y-77104716D01*
X113375057Y-77353106D01*
X112914722Y-77812637D01*
X112665284Y-78413352D01*
X112664716Y-79063795D01*
X112913106Y-79664943D01*
X112915000Y-79666840D01*
X112915000Y-81118636D01*
X112826666Y-80905379D01*
X112492314Y-80727291D01*
X111049605Y-82170000D01*
X112492314Y-83612709D01*
X112826666Y-83434621D01*
X112915000Y-83211801D01*
X112915000Y-84340300D01*
X113020427Y-84870317D01*
X113282121Y-85261970D01*
X113320657Y-85319643D01*
X130138357Y-102137343D01*
X130526513Y-102396701D01*
X125578657Y-107344557D01*
X125398728Y-107613839D01*
X125154908Y-107369593D01*
X124638698Y-107155244D01*
X124079754Y-107154756D01*
X123563171Y-107368204D01*
X123167593Y-107763092D01*
X122953244Y-108279302D01*
X122952756Y-108838246D01*
X122973000Y-108887240D01*
X122973000Y-111186314D01*
X122563144Y-111596170D01*
X122563244Y-111481754D01*
X122349796Y-110965171D01*
X121954908Y-110569593D01*
X121438698Y-110355244D01*
X120879754Y-110354756D01*
X120363171Y-110568204D01*
X119967593Y-110963092D01*
X119753244Y-111479302D01*
X119752756Y-112038246D01*
X119966204Y-112554829D01*
X120325747Y-112915000D01*
X112863917Y-112915000D01*
X113164556Y-112149536D01*
X113148706Y-111290779D01*
X112850568Y-110571011D01*
X112529307Y-110408298D01*
X111177605Y-111760000D01*
X111191748Y-111774143D01*
X111012143Y-111953748D01*
X110998000Y-111939605D01*
X110983858Y-111953748D01*
X110804253Y-111774143D01*
X110818395Y-111760000D01*
X109466693Y-110408298D01*
X109145432Y-110571011D01*
X108831444Y-111370464D01*
X108845672Y-112141338D01*
X108084392Y-112140673D01*
X108068706Y-111290779D01*
X107770568Y-110571011D01*
X107449307Y-110408298D01*
X106097605Y-111760000D01*
X106111748Y-111774143D01*
X105932143Y-111953748D01*
X105918000Y-111939605D01*
X104566298Y-113291307D01*
X99949000Y-113291307D01*
X99949000Y-111370464D01*
X103751444Y-111370464D01*
X103767294Y-112229221D01*
X104065432Y-112948989D01*
X104386693Y-113111702D01*
X105738395Y-111760000D01*
X104386693Y-110408298D01*
X104065432Y-110571011D01*
X103751444Y-111370464D01*
X99949000Y-111370464D01*
X99949000Y-110228693D01*
X104566298Y-110228693D01*
X105918000Y-111580395D01*
X107269702Y-110228693D01*
X109646298Y-110228693D01*
X110998000Y-111580395D01*
X112349702Y-110228693D01*
X112186989Y-109907432D01*
X111387536Y-109593444D01*
X110528779Y-109609294D01*
X109809011Y-109907432D01*
X109646298Y-110228693D01*
X107269702Y-110228693D01*
X107106989Y-109907432D01*
X106307536Y-109593444D01*
X105448779Y-109609294D01*
X104729011Y-109907432D01*
X104566298Y-110228693D01*
X99949000Y-110228693D01*
X99949000Y-108838246D01*
X119752756Y-108838246D01*
X119966204Y-109354829D01*
X120361092Y-109750407D01*
X120877302Y-109964756D01*
X121436246Y-109965244D01*
X121952829Y-109751796D01*
X122348407Y-109356908D01*
X122562756Y-108840698D01*
X122563244Y-108281754D01*
X122349796Y-107765171D01*
X121954908Y-107369593D01*
X121438698Y-107155244D01*
X120879754Y-107154756D01*
X120363171Y-107368204D01*
X119967593Y-107763092D01*
X119753244Y-108279302D01*
X119752756Y-108838246D01*
X99949000Y-108838246D01*
X99949000Y-90455230D01*
X102764375Y-90455230D01*
X103106966Y-90929877D01*
X104440200Y-91489942D01*
X105886275Y-91497168D01*
X107225039Y-90950454D01*
X107255834Y-90929877D01*
X107598425Y-90455230D01*
X105181400Y-88038205D01*
X102764375Y-90455230D01*
X99949000Y-90455230D01*
X99949000Y-88563475D01*
X101542832Y-88563475D01*
X102089546Y-89902239D01*
X102110123Y-89933034D01*
X102584770Y-90275625D01*
X105001795Y-87858600D01*
X105361005Y-87858600D01*
X107778030Y-90275625D01*
X108252677Y-89933034D01*
X108812742Y-88599800D01*
X108819968Y-87153725D01*
X108273254Y-85814961D01*
X108252677Y-85784166D01*
X107778030Y-85441575D01*
X105361005Y-87858600D01*
X105001795Y-87858600D01*
X102584770Y-85441575D01*
X102110123Y-85784166D01*
X101550058Y-87117400D01*
X101542832Y-88563475D01*
X99949000Y-88563475D01*
X99949000Y-85261970D01*
X102764375Y-85261970D01*
X105181400Y-87678995D01*
X107598425Y-85261970D01*
X107255834Y-84787323D01*
X105922600Y-84227258D01*
X104476525Y-84220032D01*
X103137761Y-84766746D01*
X103106966Y-84787323D01*
X102764375Y-85261970D01*
X99949000Y-85261970D01*
X99949000Y-83792314D01*
X109427291Y-83792314D01*
X109605379Y-84126666D01*
X110450426Y-84461673D01*
X111359350Y-84447794D01*
X112134621Y-84126666D01*
X112312709Y-83792314D01*
X110870000Y-82349605D01*
X109427291Y-83792314D01*
X99949000Y-83792314D01*
X99949000Y-81750426D01*
X108578327Y-81750426D01*
X108592206Y-82659350D01*
X108913334Y-83434621D01*
X109247686Y-83612709D01*
X110690395Y-82170000D01*
X109247686Y-80727291D01*
X108913334Y-80905379D01*
X108578327Y-81750426D01*
X99949000Y-81750426D01*
X99949000Y-80547686D01*
X109427291Y-80547686D01*
X110870000Y-81990395D01*
X112312709Y-80547686D01*
X112134621Y-80213334D01*
X111289574Y-79878327D01*
X110380650Y-79892206D01*
X109605379Y-80213334D01*
X109427291Y-80547686D01*
X99949000Y-80547686D01*
X99949000Y-76932314D01*
X109427291Y-76932314D01*
X109605379Y-77266666D01*
X110450426Y-77601673D01*
X111359350Y-77587794D01*
X112134621Y-77266666D01*
X112312709Y-76932314D01*
X116287291Y-76932314D01*
X116465379Y-77266666D01*
X117310426Y-77601673D01*
X118219350Y-77587794D01*
X118994621Y-77266666D01*
X119172709Y-76932314D01*
X141177291Y-76932314D01*
X141355379Y-77266666D01*
X142200426Y-77601673D01*
X143109350Y-77587794D01*
X143884621Y-77266666D01*
X144062709Y-76932314D01*
X142620000Y-75489605D01*
X141177291Y-76932314D01*
X119172709Y-76932314D01*
X117730000Y-75489605D01*
X116287291Y-76932314D01*
X112312709Y-76932314D01*
X110870000Y-75489605D01*
X109427291Y-76932314D01*
X99949000Y-76932314D01*
X99949000Y-74890426D01*
X108578327Y-74890426D01*
X108592206Y-75799350D01*
X108913334Y-76574621D01*
X109247686Y-76752709D01*
X110690395Y-75310000D01*
X111049605Y-75310000D01*
X112492314Y-76752709D01*
X112826666Y-76574621D01*
X113161673Y-75729574D01*
X113148860Y-74890426D01*
X115438327Y-74890426D01*
X115452206Y-75799350D01*
X115773334Y-76574621D01*
X116107686Y-76752709D01*
X117550395Y-75310000D01*
X117909605Y-75310000D01*
X119352314Y-76752709D01*
X119686666Y-76574621D01*
X120021673Y-75729574D01*
X120008860Y-74890426D01*
X140328327Y-74890426D01*
X140342206Y-75799350D01*
X140663334Y-76574621D01*
X140997686Y-76752709D01*
X142440395Y-75310000D01*
X142799605Y-75310000D01*
X144242314Y-76752709D01*
X144576666Y-76574621D01*
X144911673Y-75729574D01*
X144898860Y-74890426D01*
X147188327Y-74890426D01*
X147202206Y-75799350D01*
X147523334Y-76574621D01*
X147857686Y-76752709D01*
X149300395Y-75310000D01*
X149659605Y-75310000D01*
X151102314Y-76752709D01*
X151436666Y-76574621D01*
X151771673Y-75729574D01*
X151758860Y-74890426D01*
X172078327Y-74890426D01*
X172092206Y-75799350D01*
X172413334Y-76574621D01*
X172747686Y-76752709D01*
X174190395Y-75310000D01*
X174549605Y-75310000D01*
X175992314Y-76752709D01*
X176326666Y-76574621D01*
X176661673Y-75729574D01*
X176648860Y-74890426D01*
X178938327Y-74890426D01*
X178952206Y-75799350D01*
X179273334Y-76574621D01*
X179607686Y-76752709D01*
X181050395Y-75310000D01*
X181409605Y-75310000D01*
X182852314Y-76752709D01*
X183186666Y-76574621D01*
X183521673Y-75729574D01*
X183507794Y-74820650D01*
X183186666Y-74045379D01*
X182852314Y-73867291D01*
X181409605Y-75310000D01*
X181050395Y-75310000D01*
X179607686Y-73867291D01*
X179273334Y-74045379D01*
X178938327Y-74890426D01*
X176648860Y-74890426D01*
X176647794Y-74820650D01*
X176326666Y-74045379D01*
X175992314Y-73867291D01*
X174549605Y-75310000D01*
X174190395Y-75310000D01*
X172747686Y-73867291D01*
X172413334Y-74045379D01*
X172078327Y-74890426D01*
X151758860Y-74890426D01*
X151757794Y-74820650D01*
X151436666Y-74045379D01*
X151102314Y-73867291D01*
X149659605Y-75310000D01*
X149300395Y-75310000D01*
X147857686Y-73867291D01*
X147523334Y-74045379D01*
X147188327Y-74890426D01*
X144898860Y-74890426D01*
X144897794Y-74820650D01*
X144576666Y-74045379D01*
X144242314Y-73867291D01*
X142799605Y-75310000D01*
X142440395Y-75310000D01*
X140997686Y-73867291D01*
X140663334Y-74045379D01*
X140328327Y-74890426D01*
X120008860Y-74890426D01*
X120007794Y-74820650D01*
X119686666Y-74045379D01*
X119352314Y-73867291D01*
X117909605Y-75310000D01*
X117550395Y-75310000D01*
X116107686Y-73867291D01*
X115773334Y-74045379D01*
X115438327Y-74890426D01*
X113148860Y-74890426D01*
X113147794Y-74820650D01*
X112826666Y-74045379D01*
X112492314Y-73867291D01*
X111049605Y-75310000D01*
X110690395Y-75310000D01*
X109247686Y-73867291D01*
X108913334Y-74045379D01*
X108578327Y-74890426D01*
X99949000Y-74890426D01*
X99949000Y-73687686D01*
X109427291Y-73687686D01*
X110870000Y-75130395D01*
X112312709Y-73687686D01*
X116287291Y-73687686D01*
X117730000Y-75130395D01*
X119172709Y-73687686D01*
X141177291Y-73687686D01*
X142620000Y-75130395D01*
X144062709Y-73687686D01*
X148037291Y-73687686D01*
X149480000Y-75130395D01*
X150922709Y-73687686D01*
X172927291Y-73687686D01*
X174370000Y-75130395D01*
X175812709Y-73687686D01*
X179787291Y-73687686D01*
X181230000Y-75130395D01*
X182672709Y-73687686D01*
X182494621Y-73353334D01*
X181649574Y-73018327D01*
X180740650Y-73032206D01*
X179965379Y-73353334D01*
X179787291Y-73687686D01*
X175812709Y-73687686D01*
X175634621Y-73353334D01*
X174789574Y-73018327D01*
X173880650Y-73032206D01*
X173105379Y-73353334D01*
X172927291Y-73687686D01*
X150922709Y-73687686D01*
X150744621Y-73353334D01*
X149899574Y-73018327D01*
X148990650Y-73032206D01*
X148215379Y-73353334D01*
X148037291Y-73687686D01*
X144062709Y-73687686D01*
X143884621Y-73353334D01*
X143039574Y-73018327D01*
X142130650Y-73032206D01*
X141355379Y-73353334D01*
X141177291Y-73687686D01*
X119172709Y-73687686D01*
X118994621Y-73353334D01*
X118149574Y-73018327D01*
X117240650Y-73032206D01*
X116465379Y-73353334D01*
X116287291Y-73687686D01*
X112312709Y-73687686D01*
X112134621Y-73353334D01*
X111289574Y-73018327D01*
X110380650Y-73032206D01*
X109605379Y-73353334D01*
X109427291Y-73687686D01*
X99949000Y-73687686D01*
X99949000Y-72218030D01*
X102764375Y-72218030D01*
X103106966Y-72692677D01*
X104440200Y-73252742D01*
X105886275Y-73259968D01*
X107225039Y-72713254D01*
X107255834Y-72692677D01*
X107598425Y-72218030D01*
X121001575Y-72218030D01*
X121344166Y-72692677D01*
X122677400Y-73252742D01*
X124123475Y-73259968D01*
X125462239Y-72713254D01*
X125493034Y-72692677D01*
X125835625Y-72218030D01*
X134514375Y-72218030D01*
X134856966Y-72692677D01*
X136190200Y-73252742D01*
X137636275Y-73259968D01*
X138975039Y-72713254D01*
X139005834Y-72692677D01*
X139348425Y-72218030D01*
X152751575Y-72218030D01*
X153094166Y-72692677D01*
X154427400Y-73252742D01*
X155873475Y-73259968D01*
X157212239Y-72713254D01*
X157243034Y-72692677D01*
X157585625Y-72218030D01*
X166264375Y-72218030D01*
X166606966Y-72692677D01*
X167940200Y-73252742D01*
X169386275Y-73259968D01*
X170725039Y-72713254D01*
X170755834Y-72692677D01*
X171098425Y-72218030D01*
X184501575Y-72218030D01*
X184844166Y-72692677D01*
X186177400Y-73252742D01*
X187623475Y-73259968D01*
X188962239Y-72713254D01*
X188993034Y-72692677D01*
X189335625Y-72218030D01*
X186918600Y-69801005D01*
X184501575Y-72218030D01*
X171098425Y-72218030D01*
X168681400Y-69801005D01*
X166264375Y-72218030D01*
X157585625Y-72218030D01*
X155168600Y-69801005D01*
X152751575Y-72218030D01*
X139348425Y-72218030D01*
X136931400Y-69801005D01*
X134514375Y-72218030D01*
X125835625Y-72218030D01*
X123418600Y-69801005D01*
X121001575Y-72218030D01*
X107598425Y-72218030D01*
X105181400Y-69801005D01*
X102764375Y-72218030D01*
X99949000Y-72218030D01*
X99949000Y-70326275D01*
X101542832Y-70326275D01*
X102089546Y-71665039D01*
X102110123Y-71695834D01*
X102584770Y-72038425D01*
X105001795Y-69621400D01*
X105361005Y-69621400D01*
X107778030Y-72038425D01*
X108252677Y-71695834D01*
X108812742Y-70362600D01*
X108812923Y-70326275D01*
X119780032Y-70326275D01*
X120326746Y-71665039D01*
X120347323Y-71695834D01*
X120821970Y-72038425D01*
X123238995Y-69621400D01*
X123598205Y-69621400D01*
X126015230Y-72038425D01*
X126489877Y-71695834D01*
X127049942Y-70362600D01*
X127050123Y-70326275D01*
X133292832Y-70326275D01*
X133839546Y-71665039D01*
X133860123Y-71695834D01*
X134334770Y-72038425D01*
X136751795Y-69621400D01*
X137111005Y-69621400D01*
X139528030Y-72038425D01*
X140002677Y-71695834D01*
X140562742Y-70362600D01*
X140562923Y-70326275D01*
X151530032Y-70326275D01*
X152076746Y-71665039D01*
X152097323Y-71695834D01*
X152571970Y-72038425D01*
X154988995Y-69621400D01*
X155348205Y-69621400D01*
X157765230Y-72038425D01*
X158239877Y-71695834D01*
X158799942Y-70362600D01*
X158800123Y-70326275D01*
X165042832Y-70326275D01*
X165589546Y-71665039D01*
X165610123Y-71695834D01*
X166084770Y-72038425D01*
X168501795Y-69621400D01*
X168861005Y-69621400D01*
X171278030Y-72038425D01*
X171752677Y-71695834D01*
X172312742Y-70362600D01*
X172312923Y-70326275D01*
X183280032Y-70326275D01*
X183826746Y-71665039D01*
X183847323Y-71695834D01*
X184321970Y-72038425D01*
X186738995Y-69621400D01*
X187098205Y-69621400D01*
X189515230Y-72038425D01*
X189989877Y-71695834D01*
X190549942Y-70362600D01*
X190557168Y-68916525D01*
X190010454Y-67577761D01*
X189989877Y-67546966D01*
X189515230Y-67204375D01*
X187098205Y-69621400D01*
X186738995Y-69621400D01*
X184321970Y-67204375D01*
X183847323Y-67546966D01*
X183287258Y-68880200D01*
X183280032Y-70326275D01*
X172312923Y-70326275D01*
X172319968Y-68916525D01*
X171773254Y-67577761D01*
X171752677Y-67546966D01*
X171278030Y-67204375D01*
X168861005Y-69621400D01*
X168501795Y-69621400D01*
X166084770Y-67204375D01*
X165610123Y-67546966D01*
X165050058Y-68880200D01*
X165042832Y-70326275D01*
X158800123Y-70326275D01*
X158807168Y-68916525D01*
X158260454Y-67577761D01*
X158239877Y-67546966D01*
X157765230Y-67204375D01*
X155348205Y-69621400D01*
X154988995Y-69621400D01*
X152571970Y-67204375D01*
X152097323Y-67546966D01*
X151537258Y-68880200D01*
X151530032Y-70326275D01*
X140562923Y-70326275D01*
X140569968Y-68916525D01*
X140023254Y-67577761D01*
X140002677Y-67546966D01*
X139528030Y-67204375D01*
X137111005Y-69621400D01*
X136751795Y-69621400D01*
X134334770Y-67204375D01*
X133860123Y-67546966D01*
X133300058Y-68880200D01*
X133292832Y-70326275D01*
X127050123Y-70326275D01*
X127057168Y-68916525D01*
X126510454Y-67577761D01*
X126489877Y-67546966D01*
X126015230Y-67204375D01*
X123598205Y-69621400D01*
X123238995Y-69621400D01*
X120821970Y-67204375D01*
X120347323Y-67546966D01*
X119787258Y-68880200D01*
X119780032Y-70326275D01*
X108812923Y-70326275D01*
X108819968Y-68916525D01*
X108273254Y-67577761D01*
X108252677Y-67546966D01*
X107778030Y-67204375D01*
X105361005Y-69621400D01*
X105001795Y-69621400D01*
X102584770Y-67204375D01*
X102110123Y-67546966D01*
X101550058Y-68880200D01*
X101542832Y-70326275D01*
X99949000Y-70326275D01*
X99949000Y-67024770D01*
X102764375Y-67024770D01*
X105181400Y-69441795D01*
X107598425Y-67024770D01*
X121001575Y-67024770D01*
X123418600Y-69441795D01*
X125835625Y-67024770D01*
X134514375Y-67024770D01*
X136931400Y-69441795D01*
X139348425Y-67024770D01*
X152751575Y-67024770D01*
X155168600Y-69441795D01*
X157585625Y-67024770D01*
X166264375Y-67024770D01*
X168681400Y-69441795D01*
X171098425Y-67024770D01*
X184501575Y-67024770D01*
X186918600Y-69441795D01*
X189335625Y-67024770D01*
X188993034Y-66550123D01*
X187659800Y-65990058D01*
X186213725Y-65982832D01*
X184874961Y-66529546D01*
X184844166Y-66550123D01*
X184501575Y-67024770D01*
X171098425Y-67024770D01*
X170755834Y-66550123D01*
X169422600Y-65990058D01*
X167976525Y-65982832D01*
X166637761Y-66529546D01*
X166606966Y-66550123D01*
X166264375Y-67024770D01*
X157585625Y-67024770D01*
X157243034Y-66550123D01*
X155909800Y-65990058D01*
X154463725Y-65982832D01*
X153124961Y-66529546D01*
X153094166Y-66550123D01*
X152751575Y-67024770D01*
X139348425Y-67024770D01*
X139005834Y-66550123D01*
X137672600Y-65990058D01*
X136226525Y-65982832D01*
X134887761Y-66529546D01*
X134856966Y-66550123D01*
X134514375Y-67024770D01*
X125835625Y-67024770D01*
X125493034Y-66550123D01*
X124159800Y-65990058D01*
X122713725Y-65982832D01*
X121374961Y-66529546D01*
X121344166Y-66550123D01*
X121001575Y-67024770D01*
X107598425Y-67024770D01*
X107255834Y-66550123D01*
X105922600Y-65990058D01*
X104476525Y-65982832D01*
X103137761Y-66529546D01*
X103106966Y-66550123D01*
X102764375Y-67024770D01*
X99949000Y-67024770D01*
X99949000Y-64185000D01*
X118921800Y-64185000D01*
X196723000Y-64388668D01*
X196723000Y-64388668D01*
G37*
X196723000Y-64388668D02*
X196723000Y-123061663D01*
X99949000Y-122048323D01*
X99949000Y-118371307D01*
X104566298Y-118371307D01*
X104729011Y-118692568D01*
X105528464Y-119006556D01*
X106387221Y-118990706D01*
X107106989Y-118692568D01*
X107269702Y-118371307D01*
X109646298Y-118371307D01*
X109809011Y-118692568D01*
X110608464Y-119006556D01*
X111467221Y-118990706D01*
X112186989Y-118692568D01*
X112349702Y-118371307D01*
X134538298Y-118371307D01*
X134701011Y-118692568D01*
X135500464Y-119006556D01*
X136359221Y-118990706D01*
X137078989Y-118692568D01*
X137241702Y-118371307D01*
X139618298Y-118371307D01*
X139781011Y-118692568D01*
X140580464Y-119006556D01*
X141439221Y-118990706D01*
X142158989Y-118692568D01*
X142321702Y-118371307D01*
X140970000Y-117019605D01*
X139618298Y-118371307D01*
X137241702Y-118371307D01*
X135890000Y-117019605D01*
X134538298Y-118371307D01*
X112349702Y-118371307D01*
X110998000Y-117019605D01*
X109646298Y-118371307D01*
X107269702Y-118371307D01*
X105918000Y-117019605D01*
X104566298Y-118371307D01*
X99949000Y-118371307D01*
X99949000Y-116450464D01*
X103751444Y-116450464D01*
X103767294Y-117309221D01*
X104065432Y-118028989D01*
X104386693Y-118191702D01*
X105738395Y-116840000D01*
X104386693Y-115488298D01*
X104065432Y-115651011D01*
X103751444Y-116450464D01*
X99949000Y-116450464D01*
X99949000Y-113291307D01*
X104566298Y-113291307D01*
X104729011Y-113612568D01*
X105528464Y-113926556D01*
X106299338Y-113912328D01*
X106298673Y-114673608D01*
X105448779Y-114689294D01*
X104729011Y-114987432D01*
X104566298Y-115308693D01*
X105918000Y-116660395D01*
X105932143Y-116646253D01*
X106111748Y-116825858D01*
X106097605Y-116840000D01*
X107449307Y-118191702D01*
X107770568Y-118028989D01*
X108084556Y-117229536D01*
X108070328Y-116458662D01*
X108831608Y-116459327D01*
X108847294Y-117309221D01*
X109145432Y-118028989D01*
X109466693Y-118191702D01*
X110818395Y-116840000D01*
X110804253Y-116825858D01*
X110983858Y-116646253D01*
X110998000Y-116660395D01*
X111012143Y-116646253D01*
X111191748Y-116825858D01*
X111177605Y-116840000D01*
X112529307Y-118191702D01*
X112850568Y-118028989D01*
X113164556Y-117229536D01*
X113150177Y-116450464D01*
X133723444Y-116450464D01*
X133739294Y-117309221D01*
X134037432Y-118028989D01*
X134358693Y-118191702D01*
X135710395Y-116840000D01*
X134358693Y-115488298D01*
X134037432Y-115651011D01*
X133723444Y-116450464D01*
X113150177Y-116450464D01*
X113148706Y-116370779D01*
X112864647Y-115685000D01*
X121818000Y-115685000D01*
X122348017Y-115579573D01*
X122797343Y-115279343D01*
X125105217Y-112971469D01*
X125152829Y-112951796D01*
X125458186Y-112646972D01*
X125761092Y-112950407D01*
X126277302Y-113164756D01*
X126836246Y-113165244D01*
X127352829Y-112951796D01*
X127658186Y-112646972D01*
X127961092Y-112950407D01*
X128014581Y-112972617D01*
X127976233Y-113010965D01*
X127811029Y-113010821D01*
X127430485Y-113168058D01*
X127139081Y-113458954D01*
X126981180Y-113839223D01*
X126980821Y-114250971D01*
X127138058Y-114631515D01*
X127428954Y-114922919D01*
X127809223Y-115080820D01*
X128220971Y-115081179D01*
X128601515Y-114923942D01*
X128892919Y-114633046D01*
X129050820Y-114252777D01*
X129050966Y-114085836D01*
X129092802Y-114044000D01*
X130048000Y-114044000D01*
X130338839Y-113986148D01*
X130585401Y-113821401D01*
X131115495Y-113291307D01*
X134538298Y-113291307D01*
X134701011Y-113612568D01*
X135500464Y-113926556D01*
X136271338Y-113912328D01*
X136270673Y-114673608D01*
X135420779Y-114689294D01*
X134701011Y-114987432D01*
X134538298Y-115308693D01*
X135890000Y-116660395D01*
X135904143Y-116646253D01*
X136083748Y-116825858D01*
X136069605Y-116840000D01*
X137421307Y-118191702D01*
X137742568Y-118028989D01*
X138056556Y-117229536D01*
X138042328Y-116458662D01*
X138803608Y-116459327D01*
X138819294Y-117309221D01*
X139117432Y-118028989D01*
X139438693Y-118191702D01*
X140790395Y-116840000D01*
X141149605Y-116840000D01*
X142501307Y-118191702D01*
X142822568Y-118028989D01*
X143136556Y-117229536D01*
X143120706Y-116370779D01*
X142822568Y-115651011D01*
X142501307Y-115488298D01*
X141149605Y-116840000D01*
X140790395Y-116840000D01*
X140776253Y-116825858D01*
X140955858Y-116646253D01*
X140970000Y-116660395D01*
X142321702Y-115308693D01*
X142158989Y-114987432D01*
X141359536Y-114673444D01*
X140588662Y-114687672D01*
X140589327Y-113926392D01*
X141439221Y-113910706D01*
X142158989Y-113612568D01*
X142321702Y-113291307D01*
X140970000Y-111939605D01*
X140955858Y-111953748D01*
X140776253Y-111774143D01*
X140790395Y-111760000D01*
X141149605Y-111760000D01*
X142501307Y-113111702D01*
X142822568Y-112948989D01*
X143136556Y-112149536D01*
X143120706Y-111290779D01*
X142822568Y-110571011D01*
X142501307Y-110408298D01*
X141149605Y-111760000D01*
X140790395Y-111760000D01*
X139438693Y-110408298D01*
X139117432Y-110571011D01*
X138803444Y-111370464D01*
X138817672Y-112141338D01*
X138056392Y-112140673D01*
X138040706Y-111290779D01*
X137742568Y-110571011D01*
X137421307Y-110408298D01*
X136069605Y-111760000D01*
X136083748Y-111774143D01*
X135904143Y-111953748D01*
X135890000Y-111939605D01*
X134538298Y-113291307D01*
X131115495Y-113291307D01*
X131347401Y-113059401D01*
X131512148Y-112812839D01*
X131570000Y-112522000D01*
X131570000Y-111370464D01*
X133723444Y-111370464D01*
X133739294Y-112229221D01*
X134037432Y-112948989D01*
X134358693Y-113111702D01*
X135710395Y-111760000D01*
X134358693Y-110408298D01*
X134037432Y-110571011D01*
X133723444Y-111370464D01*
X131570000Y-111370464D01*
X131570000Y-110552000D01*
X131512148Y-110261161D01*
X131512148Y-110261160D01*
X131490455Y-110228693D01*
X134538298Y-110228693D01*
X135890000Y-111580395D01*
X137241702Y-110228693D01*
X139618298Y-110228693D01*
X140970000Y-111580395D01*
X142321702Y-110228693D01*
X142158989Y-109907432D01*
X141359536Y-109593444D01*
X140500779Y-109609294D01*
X139781011Y-109907432D01*
X139618298Y-110228693D01*
X137241702Y-110228693D01*
X137078989Y-109907432D01*
X136279536Y-109593444D01*
X135420779Y-109609294D01*
X134701011Y-109907432D01*
X134538298Y-110228693D01*
X131490455Y-110228693D01*
X131347401Y-110014599D01*
X130208304Y-108875502D01*
X130222756Y-108840698D01*
X130223244Y-108281754D01*
X130009796Y-107765171D01*
X129614908Y-107369593D01*
X129513218Y-107327368D01*
X132097586Y-104743000D01*
X135561724Y-104743000D01*
X135609302Y-104762756D01*
X136168246Y-104763244D01*
X136684829Y-104549796D01*
X137080407Y-104154908D01*
X137294756Y-103638698D01*
X137295244Y-103079754D01*
X137081796Y-102563171D01*
X136776972Y-102257814D01*
X137080407Y-101954908D01*
X137294756Y-101438698D01*
X137295244Y-100879754D01*
X137081796Y-100363171D01*
X136776972Y-100057814D01*
X137080407Y-99754908D01*
X137294756Y-99238698D01*
X137295244Y-98679754D01*
X137081796Y-98163171D01*
X136686908Y-97767593D01*
X136170698Y-97553244D01*
X135611754Y-97552756D01*
X135095171Y-97766204D01*
X134699593Y-98161092D01*
X134485244Y-98677302D01*
X134484756Y-99236246D01*
X134698204Y-99752829D01*
X134718340Y-99773000D01*
X131691386Y-99773000D01*
X127954632Y-96036246D01*
X134484756Y-96036246D01*
X134698204Y-96552829D01*
X135093092Y-96948407D01*
X135609302Y-97162756D01*
X136168246Y-97163244D01*
X136684829Y-96949796D01*
X137080407Y-96554908D01*
X137095733Y-96518000D01*
X137175298Y-96518000D01*
X138385980Y-97728682D01*
X138295171Y-97766204D01*
X137899593Y-98161092D01*
X137685244Y-98677302D01*
X137684756Y-99236246D01*
X137898204Y-99752829D01*
X138203028Y-100058186D01*
X137899593Y-100361092D01*
X137685244Y-100877302D01*
X137684756Y-101436246D01*
X137898204Y-101952829D01*
X138233028Y-102288238D01*
X137899593Y-102621092D01*
X137685244Y-103137302D01*
X137684756Y-103696246D01*
X137898204Y-104212829D01*
X138293092Y-104608407D01*
X138809302Y-104822756D01*
X139368246Y-104823244D01*
X139884829Y-104609796D01*
X140280407Y-104214908D01*
X140494756Y-103698698D01*
X140495244Y-103139754D01*
X140281796Y-102623171D01*
X139946972Y-102287762D01*
X140280407Y-101954908D01*
X140494756Y-101438698D01*
X140495244Y-100879754D01*
X140281796Y-100363171D01*
X139976972Y-100057814D01*
X140280407Y-99754908D01*
X140319077Y-99661779D01*
X147322000Y-106664702D01*
X147322000Y-106959214D01*
X146986951Y-107183086D01*
X146751844Y-107534949D01*
X146669285Y-107950000D01*
X146751844Y-108365051D01*
X146898809Y-108585000D01*
X146751844Y-108804949D01*
X146669285Y-109220000D01*
X146751844Y-109635051D01*
X146898809Y-109855000D01*
X146751844Y-110074949D01*
X146669285Y-110490000D01*
X146751844Y-110905051D01*
X146986951Y-111256914D01*
X147338814Y-111492021D01*
X147753865Y-111574580D01*
X148410135Y-111574580D01*
X148825186Y-111492021D01*
X149177049Y-111256914D01*
X149412156Y-110905051D01*
X149494715Y-110490000D01*
X149412156Y-110074949D01*
X149265191Y-109855000D01*
X149412156Y-109635051D01*
X149494715Y-109220000D01*
X149412156Y-108804949D01*
X149265191Y-108585000D01*
X149412156Y-108365051D01*
X149494715Y-107950000D01*
X149412156Y-107534949D01*
X149177049Y-107183086D01*
X148842000Y-106959214D01*
X148842000Y-106584802D01*
X149613000Y-107355802D01*
X149613000Y-111881200D01*
X149670852Y-112172039D01*
X149835599Y-112418601D01*
X153315099Y-115898101D01*
X153561661Y-116062848D01*
X153852500Y-116120700D01*
X174257098Y-116120700D01*
X175472627Y-117336229D01*
X175237964Y-117449268D01*
X174866461Y-117865069D01*
X174659670Y-117555585D01*
X174173489Y-117230729D01*
X173600000Y-117116655D01*
X173026511Y-117230729D01*
X172540330Y-117555585D01*
X172215474Y-118041766D01*
X172101400Y-118615255D01*
X172101400Y-118984745D01*
X172215474Y-119558234D01*
X172540330Y-120044415D01*
X173026511Y-120369271D01*
X173600000Y-120483345D01*
X174173489Y-120369271D01*
X174659670Y-120044415D01*
X174866461Y-119734931D01*
X175237964Y-120150732D01*
X175765209Y-120404709D01*
X175780974Y-120407358D01*
X176013000Y-120286217D01*
X176013000Y-118927000D01*
X175993000Y-118927000D01*
X175993000Y-118673000D01*
X176013000Y-118673000D01*
X176013000Y-118653000D01*
X176267000Y-118653000D01*
X176267000Y-118673000D01*
X176287000Y-118673000D01*
X176287000Y-118927000D01*
X176267000Y-118927000D01*
X176267000Y-120286217D01*
X176499026Y-120407358D01*
X176514791Y-120404709D01*
X177042036Y-120150732D01*
X177413539Y-119734931D01*
X177620330Y-120044415D01*
X178106511Y-120369271D01*
X178680000Y-120483345D01*
X179253489Y-120369271D01*
X179739670Y-120044415D01*
X179950000Y-119729634D01*
X180160330Y-120044415D01*
X180646511Y-120369271D01*
X181220000Y-120483345D01*
X181793489Y-120369271D01*
X182279670Y-120044415D01*
X182490000Y-119729634D01*
X182700330Y-120044415D01*
X183186511Y-120369271D01*
X183760000Y-120483345D01*
X184333489Y-120369271D01*
X184819670Y-120044415D01*
X184831016Y-120027434D01*
X184838243Y-120063765D01*
X184978591Y-120273809D01*
X185188635Y-120414157D01*
X185436400Y-120463440D01*
X187163600Y-120463440D01*
X187411365Y-120414157D01*
X187621409Y-120273809D01*
X187761757Y-120063765D01*
X187811040Y-119816000D01*
X187811040Y-117784000D01*
X187761757Y-117536235D01*
X187621409Y-117326191D01*
X187411365Y-117185843D01*
X187163600Y-117136560D01*
X185436400Y-117136560D01*
X185188635Y-117185843D01*
X184978591Y-117326191D01*
X184838243Y-117536235D01*
X184831016Y-117572566D01*
X184819670Y-117555585D01*
X184333489Y-117230729D01*
X183760000Y-117116655D01*
X183186511Y-117230729D01*
X182832964Y-117466962D01*
X167952601Y-102586599D01*
X167706039Y-102421852D01*
X167415200Y-102364000D01*
X165024705Y-102364000D01*
X165310043Y-102173343D01*
X177028156Y-90455230D01*
X184501575Y-90455230D01*
X184844166Y-90929877D01*
X186177400Y-91489942D01*
X187623475Y-91497168D01*
X188962239Y-90950454D01*
X188993034Y-90929877D01*
X189335625Y-90455230D01*
X186918600Y-88038205D01*
X184501575Y-90455230D01*
X177028156Y-90455230D01*
X178779343Y-88704043D01*
X178873267Y-88563475D01*
X183280032Y-88563475D01*
X183826746Y-89902239D01*
X183847323Y-89933034D01*
X184321970Y-90275625D01*
X186738995Y-87858600D01*
X187098205Y-87858600D01*
X189515230Y-90275625D01*
X189989877Y-89933034D01*
X190549942Y-88599800D01*
X190557168Y-87153725D01*
X190010454Y-85814961D01*
X189989877Y-85784166D01*
X189515230Y-85441575D01*
X187098205Y-87858600D01*
X186738995Y-87858600D01*
X184321970Y-85441575D01*
X183847323Y-85784166D01*
X183287258Y-87117400D01*
X183280032Y-88563475D01*
X178873267Y-88563475D01*
X179079574Y-88254716D01*
X179185000Y-87724700D01*
X179185000Y-85261970D01*
X184501575Y-85261970D01*
X186918600Y-87678995D01*
X189335625Y-85261970D01*
X188993034Y-84787323D01*
X187659800Y-84227258D01*
X186213725Y-84220032D01*
X184874961Y-84766746D01*
X184844166Y-84787323D01*
X184501575Y-85261970D01*
X179185000Y-85261970D01*
X179185000Y-83792314D01*
X179787291Y-83792314D01*
X179965379Y-84126666D01*
X180810426Y-84461673D01*
X181719350Y-84447794D01*
X182494621Y-84126666D01*
X182672709Y-83792314D01*
X181230000Y-82349605D01*
X179787291Y-83792314D01*
X179185000Y-83792314D01*
X179185000Y-83221364D01*
X179273334Y-83434621D01*
X179607686Y-83612709D01*
X181050395Y-82170000D01*
X181409605Y-82170000D01*
X182852314Y-83612709D01*
X183186666Y-83434621D01*
X183521673Y-82589574D01*
X183507794Y-81680650D01*
X183186666Y-80905379D01*
X182852314Y-80727291D01*
X181409605Y-82170000D01*
X181050395Y-82170000D01*
X179607686Y-80727291D01*
X179273334Y-80905379D01*
X179185000Y-81128199D01*
X179185000Y-80547686D01*
X179787291Y-80547686D01*
X181230000Y-81990395D01*
X182672709Y-80547686D01*
X182494621Y-80213334D01*
X181649574Y-79878327D01*
X180740650Y-79892206D01*
X179965379Y-80213334D01*
X179787291Y-80547686D01*
X179185000Y-80547686D01*
X179185000Y-79667641D01*
X179185278Y-79667363D01*
X179434716Y-79066648D01*
X179435284Y-78416205D01*
X179186894Y-77815057D01*
X178727363Y-77354722D01*
X178126648Y-77105284D01*
X177476205Y-77104716D01*
X176875057Y-77353106D01*
X176414722Y-77812637D01*
X176165284Y-78413352D01*
X176164716Y-79063795D01*
X176413106Y-79664943D01*
X176415000Y-79666840D01*
X176415000Y-81118636D01*
X176326666Y-80905379D01*
X175992314Y-80727291D01*
X174549605Y-82170000D01*
X175992314Y-83612709D01*
X176326666Y-83434621D01*
X176415000Y-83211801D01*
X176415000Y-87151014D01*
X165302417Y-98263597D01*
X165275796Y-98199171D01*
X164970972Y-97893814D01*
X165274407Y-97590908D01*
X165488756Y-97074698D01*
X165489244Y-96515754D01*
X165275796Y-95999171D01*
X164880908Y-95603593D01*
X164364698Y-95389244D01*
X163805754Y-95388756D01*
X163289171Y-95602204D01*
X162893593Y-95997092D01*
X162679244Y-96513302D01*
X162678756Y-97072246D01*
X162892204Y-97588829D01*
X163197028Y-97894186D01*
X162893593Y-98197092D01*
X162679244Y-98713302D01*
X162678756Y-99272246D01*
X162892204Y-99788829D01*
X163197028Y-100094186D01*
X162893593Y-100397092D01*
X162679244Y-100913302D01*
X162678756Y-101472246D01*
X162892204Y-101988829D01*
X163266721Y-102364000D01*
X161700663Y-102364000D01*
X162074407Y-101990908D01*
X162288756Y-101474698D01*
X162289244Y-100915754D01*
X162075796Y-100399171D01*
X161770972Y-100093814D01*
X162074407Y-99790908D01*
X162288756Y-99274698D01*
X162289244Y-98715754D01*
X162075796Y-98199171D01*
X161740972Y-97863762D01*
X162074407Y-97530908D01*
X162288756Y-97014698D01*
X162289244Y-96455754D01*
X162269000Y-96406760D01*
X162269000Y-90455230D01*
X166264375Y-90455230D01*
X166606966Y-90929877D01*
X167940200Y-91489942D01*
X169386275Y-91497168D01*
X170725039Y-90950454D01*
X170755834Y-90929877D01*
X171098425Y-90455230D01*
X168681400Y-88038205D01*
X166264375Y-90455230D01*
X162269000Y-90455230D01*
X162269000Y-88563475D01*
X165042832Y-88563475D01*
X165589546Y-89902239D01*
X165610123Y-89933034D01*
X166084770Y-90275625D01*
X168501795Y-87858600D01*
X168861005Y-87858600D01*
X171278030Y-90275625D01*
X171752677Y-89933034D01*
X172312742Y-88599800D01*
X172319968Y-87153725D01*
X171773254Y-85814961D01*
X171752677Y-85784166D01*
X171278030Y-85441575D01*
X168861005Y-87858600D01*
X168501795Y-87858600D01*
X166084770Y-85441575D01*
X165610123Y-85784166D01*
X165050058Y-87117400D01*
X165042832Y-88563475D01*
X162269000Y-88563475D01*
X162269000Y-87984400D01*
X162163573Y-87454383D01*
X161863343Y-87005057D01*
X160120256Y-85261970D01*
X166264375Y-85261970D01*
X168681400Y-87678995D01*
X171098425Y-85261970D01*
X170755834Y-84787323D01*
X169422600Y-84227258D01*
X167976525Y-84220032D01*
X166637761Y-84766746D01*
X166606966Y-84787323D01*
X166264375Y-85261970D01*
X160120256Y-85261970D01*
X158650600Y-83792314D01*
X172927291Y-83792314D01*
X173105379Y-84126666D01*
X173950426Y-84461673D01*
X174859350Y-84447794D01*
X175634621Y-84126666D01*
X175812709Y-83792314D01*
X174370000Y-82349605D01*
X172927291Y-83792314D01*
X158650600Y-83792314D01*
X156608712Y-81750426D01*
X172078327Y-81750426D01*
X172092206Y-82659350D01*
X172413334Y-83434621D01*
X172747686Y-83612709D01*
X174190395Y-82170000D01*
X172747686Y-80727291D01*
X172413334Y-80905379D01*
X172078327Y-81750426D01*
X156608712Y-81750426D01*
X155405972Y-80547686D01*
X172927291Y-80547686D01*
X174370000Y-81990395D01*
X175812709Y-80547686D01*
X175634621Y-80213334D01*
X174789574Y-79878327D01*
X173880650Y-79892206D01*
X173105379Y-80213334D01*
X172927291Y-80547686D01*
X155405972Y-80547686D01*
X152618943Y-77760657D01*
X152169617Y-77460427D01*
X151639600Y-77355000D01*
X150531364Y-77355000D01*
X150744621Y-77266666D01*
X150922709Y-76932314D01*
X172927291Y-76932314D01*
X173105379Y-77266666D01*
X173950426Y-77601673D01*
X174859350Y-77587794D01*
X175634621Y-77266666D01*
X175812709Y-76932314D01*
X179787291Y-76932314D01*
X179965379Y-77266666D01*
X180810426Y-77601673D01*
X181719350Y-77587794D01*
X182494621Y-77266666D01*
X182672709Y-76932314D01*
X181230000Y-75489605D01*
X179787291Y-76932314D01*
X175812709Y-76932314D01*
X174370000Y-75489605D01*
X172927291Y-76932314D01*
X150922709Y-76932314D01*
X149480000Y-75489605D01*
X148037291Y-76932314D01*
X148215379Y-77266666D01*
X148438199Y-77355000D01*
X146977641Y-77355000D01*
X146977363Y-77354722D01*
X146376648Y-77105284D01*
X145726205Y-77104716D01*
X145125057Y-77353106D01*
X144664722Y-77812637D01*
X144415284Y-78413352D01*
X144414716Y-79063795D01*
X144663106Y-79664943D01*
X145122637Y-80125278D01*
X145723352Y-80374716D01*
X146373795Y-80375284D01*
X146974943Y-80126894D01*
X146976840Y-80125000D01*
X148428636Y-80125000D01*
X148215379Y-80213334D01*
X148037291Y-80547686D01*
X149480000Y-81990395D01*
X150922709Y-80547686D01*
X150744621Y-80213334D01*
X150521801Y-80125000D01*
X151065914Y-80125000D01*
X155164447Y-84223533D01*
X154463725Y-84220032D01*
X153124961Y-84766746D01*
X153094166Y-84787323D01*
X152751575Y-85261970D01*
X155168600Y-87678995D01*
X155182743Y-87664853D01*
X155362348Y-87844458D01*
X155348205Y-87858600D01*
X157765230Y-90275625D01*
X158239877Y-89933034D01*
X158799942Y-88599800D01*
X158803625Y-87862711D01*
X159499000Y-88558086D01*
X159499000Y-96405724D01*
X159479244Y-96453302D01*
X159478756Y-97012246D01*
X159692204Y-97528829D01*
X160027028Y-97864238D01*
X159693593Y-98197092D01*
X159479244Y-98713302D01*
X159478756Y-99272246D01*
X159692204Y-99788829D01*
X159997028Y-100094186D01*
X159693593Y-100397092D01*
X159479244Y-100913302D01*
X159478756Y-101472246D01*
X159692204Y-101988829D01*
X160066721Y-102364000D01*
X155444713Y-102364000D01*
X155508156Y-102269051D01*
X155590715Y-101854000D01*
X155508156Y-101438949D01*
X155358359Y-101214762D01*
X155522981Y-100877935D01*
X155396068Y-100711000D01*
X154305000Y-100711000D01*
X154305000Y-100731000D01*
X154051000Y-100731000D01*
X154051000Y-100711000D01*
X152959932Y-100711000D01*
X152833019Y-100877935D01*
X152997641Y-101214762D01*
X152847844Y-101438949D01*
X152765285Y-101854000D01*
X152847844Y-102269051D01*
X152994809Y-102489000D01*
X152847844Y-102708949D01*
X152765285Y-103124000D01*
X152847844Y-103539051D01*
X153082951Y-103890914D01*
X153434814Y-104126021D01*
X153849865Y-104208580D01*
X154506135Y-104208580D01*
X154921186Y-104126021D01*
X155273049Y-103890914D01*
X155277669Y-103884000D01*
X159574458Y-103884000D01*
X159479244Y-104113302D01*
X159478756Y-104672246D01*
X159692204Y-105188829D01*
X160087092Y-105584407D01*
X160603302Y-105798756D01*
X161162246Y-105799244D01*
X161199181Y-105783983D01*
X164889499Y-109474301D01*
X165136061Y-109639048D01*
X165426900Y-109696900D01*
X170373298Y-109696900D01*
X177986989Y-117310591D01*
X177752964Y-117466962D01*
X175109301Y-114823299D01*
X174862739Y-114658552D01*
X174571900Y-114600700D01*
X154167302Y-114600700D01*
X153559850Y-113993248D01*
X153810036Y-113872732D01*
X154178000Y-113460892D01*
X154545964Y-113872732D01*
X155073209Y-114126709D01*
X155088974Y-114129358D01*
X155321000Y-114008217D01*
X155321000Y-112649000D01*
X153035000Y-112649000D01*
X153035000Y-112669000D01*
X152781000Y-112669000D01*
X152781000Y-112649000D01*
X152761000Y-112649000D01*
X152761000Y-112395000D01*
X152781000Y-112395000D01*
X152781000Y-111035783D01*
X153035000Y-111035783D01*
X153035000Y-112395000D01*
X155321000Y-112395000D01*
X155321000Y-111035783D01*
X155575000Y-111035783D01*
X155575000Y-112395000D01*
X155595000Y-112395000D01*
X155595000Y-112649000D01*
X155575000Y-112649000D01*
X155575000Y-114008217D01*
X155807026Y-114129358D01*
X155822791Y-114126709D01*
X156350036Y-113872732D01*
X156508306Y-113695590D01*
X156526243Y-113785765D01*
X156666591Y-113995809D01*
X156876635Y-114136157D01*
X157124400Y-114185440D01*
X158851600Y-114185440D01*
X159099365Y-114136157D01*
X159309409Y-113995809D01*
X159449757Y-113785765D01*
X159499040Y-113538000D01*
X159499040Y-111506000D01*
X159449757Y-111258235D01*
X159309409Y-111048191D01*
X159099365Y-110907843D01*
X158851600Y-110858560D01*
X157124400Y-110858560D01*
X156876635Y-110907843D01*
X156666591Y-111048191D01*
X156526243Y-111258235D01*
X156508306Y-111348410D01*
X156350036Y-111171268D01*
X155822791Y-110917291D01*
X155807026Y-110914642D01*
X155575000Y-111035783D01*
X155321000Y-111035783D01*
X155088974Y-110914642D01*
X155073209Y-110917291D01*
X154545964Y-111171268D01*
X154178000Y-111583108D01*
X153810036Y-111171268D01*
X153282791Y-110917291D01*
X153267026Y-110914642D01*
X153035000Y-111035783D01*
X152781000Y-111035783D01*
X152548974Y-110914642D01*
X152533209Y-110917291D01*
X152005964Y-111171268D01*
X151616046Y-111607680D01*
X151501564Y-111934962D01*
X151133000Y-111566398D01*
X151133000Y-107041000D01*
X151075148Y-106750161D01*
X150910401Y-106503599D01*
X144696867Y-100290065D01*
X152833019Y-100290065D01*
X152959932Y-100457000D01*
X154051000Y-100457000D01*
X154051000Y-99499420D01*
X154305000Y-99499420D01*
X154305000Y-100457000D01*
X155396068Y-100457000D01*
X155522981Y-100290065D01*
X155335706Y-99906889D01*
X155011373Y-99630580D01*
X154605990Y-99499420D01*
X154305000Y-99499420D01*
X154051000Y-99499420D01*
X153750010Y-99499420D01*
X153344627Y-99630580D01*
X153020294Y-99906889D01*
X152833019Y-100290065D01*
X144696867Y-100290065D01*
X140480304Y-96073502D01*
X140494756Y-96038698D01*
X140495244Y-95479754D01*
X140281796Y-94963171D01*
X139886908Y-94567593D01*
X139370698Y-94353244D01*
X138811754Y-94352756D01*
X138295171Y-94566204D01*
X137899593Y-94961092D01*
X137843021Y-95097333D01*
X137780939Y-95055852D01*
X137490100Y-94998000D01*
X137096187Y-94998000D01*
X137081796Y-94963171D01*
X136686908Y-94567593D01*
X136170698Y-94353244D01*
X135611754Y-94352756D01*
X135095171Y-94566204D01*
X134699593Y-94961092D01*
X134485244Y-95477302D01*
X134484756Y-96036246D01*
X127954632Y-96036246D01*
X123411999Y-91493613D01*
X124123475Y-91497168D01*
X125462239Y-90950454D01*
X125493034Y-90929877D01*
X125835625Y-90455230D01*
X134514375Y-90455230D01*
X134856966Y-90929877D01*
X136190200Y-91489942D01*
X137636275Y-91497168D01*
X138975039Y-90950454D01*
X139005834Y-90929877D01*
X139348425Y-90455230D01*
X152751575Y-90455230D01*
X153094166Y-90929877D01*
X154427400Y-91489942D01*
X155873475Y-91497168D01*
X157212239Y-90950454D01*
X157243034Y-90929877D01*
X157585625Y-90455230D01*
X155168600Y-88038205D01*
X152751575Y-90455230D01*
X139348425Y-90455230D01*
X136931400Y-88038205D01*
X134514375Y-90455230D01*
X125835625Y-90455230D01*
X123418600Y-88038205D01*
X123404458Y-88052348D01*
X123224853Y-87872743D01*
X123238995Y-87858600D01*
X123598205Y-87858600D01*
X126015230Y-90275625D01*
X126489877Y-89933034D01*
X127049942Y-88599800D01*
X127050123Y-88563475D01*
X133292832Y-88563475D01*
X133839546Y-89902239D01*
X133860123Y-89933034D01*
X134334770Y-90275625D01*
X136751795Y-87858600D01*
X137111005Y-87858600D01*
X139528030Y-90275625D01*
X140002677Y-89933034D01*
X140562742Y-88599800D01*
X140562923Y-88563475D01*
X151530032Y-88563475D01*
X152076746Y-89902239D01*
X152097323Y-89933034D01*
X152571970Y-90275625D01*
X154988995Y-87858600D01*
X152571970Y-85441575D01*
X152097323Y-85784166D01*
X151537258Y-87117400D01*
X151530032Y-88563475D01*
X140562923Y-88563475D01*
X140569968Y-87153725D01*
X140023254Y-85814961D01*
X140002677Y-85784166D01*
X139528030Y-85441575D01*
X137111005Y-87858600D01*
X136751795Y-87858600D01*
X134334770Y-85441575D01*
X133860123Y-85784166D01*
X133300058Y-87117400D01*
X133292832Y-88563475D01*
X127050123Y-88563475D01*
X127057168Y-87153725D01*
X126510454Y-85814961D01*
X126489877Y-85784166D01*
X126015230Y-85441575D01*
X123598205Y-87858600D01*
X123238995Y-87858600D01*
X120821970Y-85441575D01*
X120347323Y-85784166D01*
X119787258Y-87117400D01*
X119783522Y-87865136D01*
X117180356Y-85261970D01*
X121001575Y-85261970D01*
X123418600Y-87678995D01*
X125835625Y-85261970D01*
X134514375Y-85261970D01*
X136931400Y-87678995D01*
X139348425Y-85261970D01*
X139005834Y-84787323D01*
X137672600Y-84227258D01*
X136226525Y-84220032D01*
X134887761Y-84766746D01*
X134856966Y-84787323D01*
X134514375Y-85261970D01*
X125835625Y-85261970D01*
X125493034Y-84787323D01*
X124159800Y-84227258D01*
X122713725Y-84220032D01*
X121374961Y-84766746D01*
X121344166Y-84787323D01*
X121001575Y-85261970D01*
X117180356Y-85261970D01*
X115710700Y-83792314D01*
X116287291Y-83792314D01*
X116465379Y-84126666D01*
X117310426Y-84461673D01*
X118219350Y-84447794D01*
X118994621Y-84126666D01*
X119172709Y-83792314D01*
X141177291Y-83792314D01*
X141355379Y-84126666D01*
X142200426Y-84461673D01*
X143109350Y-84447794D01*
X143884621Y-84126666D01*
X144062709Y-83792314D01*
X148037291Y-83792314D01*
X148215379Y-84126666D01*
X149060426Y-84461673D01*
X149969350Y-84447794D01*
X150744621Y-84126666D01*
X150922709Y-83792314D01*
X149480000Y-82349605D01*
X148037291Y-83792314D01*
X144062709Y-83792314D01*
X142620000Y-82349605D01*
X141177291Y-83792314D01*
X119172709Y-83792314D01*
X117730000Y-82349605D01*
X116287291Y-83792314D01*
X115710700Y-83792314D01*
X115685000Y-83766614D01*
X115685000Y-83221364D01*
X115773334Y-83434621D01*
X116107686Y-83612709D01*
X117550395Y-82170000D01*
X117909605Y-82170000D01*
X119352314Y-83612709D01*
X119686666Y-83434621D01*
X120021673Y-82589574D01*
X120008860Y-81750426D01*
X140328327Y-81750426D01*
X140342206Y-82659350D01*
X140663334Y-83434621D01*
X140997686Y-83612709D01*
X142440395Y-82170000D01*
X142799605Y-82170000D01*
X144242314Y-83612709D01*
X144576666Y-83434621D01*
X144911673Y-82589574D01*
X144898860Y-81750426D01*
X147188327Y-81750426D01*
X147202206Y-82659350D01*
X147523334Y-83434621D01*
X147857686Y-83612709D01*
X149300395Y-82170000D01*
X149659605Y-82170000D01*
X151102314Y-83612709D01*
X151436666Y-83434621D01*
X151771673Y-82589574D01*
X151757794Y-81680650D01*
X151436666Y-80905379D01*
X151102314Y-80727291D01*
X149659605Y-82170000D01*
X149300395Y-82170000D01*
X147857686Y-80727291D01*
X147523334Y-80905379D01*
X147188327Y-81750426D01*
X144898860Y-81750426D01*
X144897794Y-81680650D01*
X144576666Y-80905379D01*
X144242314Y-80727291D01*
X142799605Y-82170000D01*
X142440395Y-82170000D01*
X140997686Y-80727291D01*
X140663334Y-80905379D01*
X140328327Y-81750426D01*
X120008860Y-81750426D01*
X120007794Y-81680650D01*
X119686666Y-80905379D01*
X119352314Y-80727291D01*
X117909605Y-82170000D01*
X117550395Y-82170000D01*
X116107686Y-80727291D01*
X115773334Y-80905379D01*
X115685000Y-81128199D01*
X115685000Y-80547686D01*
X116287291Y-80547686D01*
X117730000Y-81990395D01*
X119172709Y-80547686D01*
X141177291Y-80547686D01*
X142620000Y-81990395D01*
X144062709Y-80547686D01*
X143884621Y-80213334D01*
X143039574Y-79878327D01*
X142130650Y-79892206D01*
X141355379Y-80213334D01*
X141177291Y-80547686D01*
X119172709Y-80547686D01*
X118994621Y-80213334D01*
X118149574Y-79878327D01*
X117240650Y-79892206D01*
X116465379Y-80213334D01*
X116287291Y-80547686D01*
X115685000Y-80547686D01*
X115685000Y-79667641D01*
X115685278Y-79667363D01*
X115934716Y-79066648D01*
X115935284Y-78416205D01*
X115686894Y-77815057D01*
X115227363Y-77354722D01*
X114626648Y-77105284D01*
X113976205Y-77104716D01*
X113375057Y-77353106D01*
X112914722Y-77812637D01*
X112665284Y-78413352D01*
X112664716Y-79063795D01*
X112913106Y-79664943D01*
X112915000Y-79666840D01*
X112915000Y-81118636D01*
X112826666Y-80905379D01*
X112492314Y-80727291D01*
X111049605Y-82170000D01*
X112492314Y-83612709D01*
X112826666Y-83434621D01*
X112915000Y-83211801D01*
X112915000Y-84340300D01*
X113020427Y-84870317D01*
X113282121Y-85261970D01*
X113320657Y-85319643D01*
X130138357Y-102137343D01*
X130526513Y-102396701D01*
X125578657Y-107344557D01*
X125398728Y-107613839D01*
X125154908Y-107369593D01*
X124638698Y-107155244D01*
X124079754Y-107154756D01*
X123563171Y-107368204D01*
X123167593Y-107763092D01*
X122953244Y-108279302D01*
X122952756Y-108838246D01*
X122973000Y-108887240D01*
X122973000Y-111186314D01*
X122563144Y-111596170D01*
X122563244Y-111481754D01*
X122349796Y-110965171D01*
X121954908Y-110569593D01*
X121438698Y-110355244D01*
X120879754Y-110354756D01*
X120363171Y-110568204D01*
X119967593Y-110963092D01*
X119753244Y-111479302D01*
X119752756Y-112038246D01*
X119966204Y-112554829D01*
X120325747Y-112915000D01*
X112863917Y-112915000D01*
X113164556Y-112149536D01*
X113148706Y-111290779D01*
X112850568Y-110571011D01*
X112529307Y-110408298D01*
X111177605Y-111760000D01*
X111191748Y-111774143D01*
X111012143Y-111953748D01*
X110998000Y-111939605D01*
X110983858Y-111953748D01*
X110804253Y-111774143D01*
X110818395Y-111760000D01*
X109466693Y-110408298D01*
X109145432Y-110571011D01*
X108831444Y-111370464D01*
X108845672Y-112141338D01*
X108084392Y-112140673D01*
X108068706Y-111290779D01*
X107770568Y-110571011D01*
X107449307Y-110408298D01*
X106097605Y-111760000D01*
X106111748Y-111774143D01*
X105932143Y-111953748D01*
X105918000Y-111939605D01*
X104566298Y-113291307D01*
X99949000Y-113291307D01*
X99949000Y-111370464D01*
X103751444Y-111370464D01*
X103767294Y-112229221D01*
X104065432Y-112948989D01*
X104386693Y-113111702D01*
X105738395Y-111760000D01*
X104386693Y-110408298D01*
X104065432Y-110571011D01*
X103751444Y-111370464D01*
X99949000Y-111370464D01*
X99949000Y-110228693D01*
X104566298Y-110228693D01*
X105918000Y-111580395D01*
X107269702Y-110228693D01*
X109646298Y-110228693D01*
X110998000Y-111580395D01*
X112349702Y-110228693D01*
X112186989Y-109907432D01*
X111387536Y-109593444D01*
X110528779Y-109609294D01*
X109809011Y-109907432D01*
X109646298Y-110228693D01*
X107269702Y-110228693D01*
X107106989Y-109907432D01*
X106307536Y-109593444D01*
X105448779Y-109609294D01*
X104729011Y-109907432D01*
X104566298Y-110228693D01*
X99949000Y-110228693D01*
X99949000Y-108838246D01*
X119752756Y-108838246D01*
X119966204Y-109354829D01*
X120361092Y-109750407D01*
X120877302Y-109964756D01*
X121436246Y-109965244D01*
X121952829Y-109751796D01*
X122348407Y-109356908D01*
X122562756Y-108840698D01*
X122563244Y-108281754D01*
X122349796Y-107765171D01*
X121954908Y-107369593D01*
X121438698Y-107155244D01*
X120879754Y-107154756D01*
X120363171Y-107368204D01*
X119967593Y-107763092D01*
X119753244Y-108279302D01*
X119752756Y-108838246D01*
X99949000Y-108838246D01*
X99949000Y-90455230D01*
X102764375Y-90455230D01*
X103106966Y-90929877D01*
X104440200Y-91489942D01*
X105886275Y-91497168D01*
X107225039Y-90950454D01*
X107255834Y-90929877D01*
X107598425Y-90455230D01*
X105181400Y-88038205D01*
X102764375Y-90455230D01*
X99949000Y-90455230D01*
X99949000Y-88563475D01*
X101542832Y-88563475D01*
X102089546Y-89902239D01*
X102110123Y-89933034D01*
X102584770Y-90275625D01*
X105001795Y-87858600D01*
X105361005Y-87858600D01*
X107778030Y-90275625D01*
X108252677Y-89933034D01*
X108812742Y-88599800D01*
X108819968Y-87153725D01*
X108273254Y-85814961D01*
X108252677Y-85784166D01*
X107778030Y-85441575D01*
X105361005Y-87858600D01*
X105001795Y-87858600D01*
X102584770Y-85441575D01*
X102110123Y-85784166D01*
X101550058Y-87117400D01*
X101542832Y-88563475D01*
X99949000Y-88563475D01*
X99949000Y-85261970D01*
X102764375Y-85261970D01*
X105181400Y-87678995D01*
X107598425Y-85261970D01*
X107255834Y-84787323D01*
X105922600Y-84227258D01*
X104476525Y-84220032D01*
X103137761Y-84766746D01*
X103106966Y-84787323D01*
X102764375Y-85261970D01*
X99949000Y-85261970D01*
X99949000Y-83792314D01*
X109427291Y-83792314D01*
X109605379Y-84126666D01*
X110450426Y-84461673D01*
X111359350Y-84447794D01*
X112134621Y-84126666D01*
X112312709Y-83792314D01*
X110870000Y-82349605D01*
X109427291Y-83792314D01*
X99949000Y-83792314D01*
X99949000Y-81750426D01*
X108578327Y-81750426D01*
X108592206Y-82659350D01*
X108913334Y-83434621D01*
X109247686Y-83612709D01*
X110690395Y-82170000D01*
X109247686Y-80727291D01*
X108913334Y-80905379D01*
X108578327Y-81750426D01*
X99949000Y-81750426D01*
X99949000Y-80547686D01*
X109427291Y-80547686D01*
X110870000Y-81990395D01*
X112312709Y-80547686D01*
X112134621Y-80213334D01*
X111289574Y-79878327D01*
X110380650Y-79892206D01*
X109605379Y-80213334D01*
X109427291Y-80547686D01*
X99949000Y-80547686D01*
X99949000Y-76932314D01*
X109427291Y-76932314D01*
X109605379Y-77266666D01*
X110450426Y-77601673D01*
X111359350Y-77587794D01*
X112134621Y-77266666D01*
X112312709Y-76932314D01*
X116287291Y-76932314D01*
X116465379Y-77266666D01*
X117310426Y-77601673D01*
X118219350Y-77587794D01*
X118994621Y-77266666D01*
X119172709Y-76932314D01*
X141177291Y-76932314D01*
X141355379Y-77266666D01*
X142200426Y-77601673D01*
X143109350Y-77587794D01*
X143884621Y-77266666D01*
X144062709Y-76932314D01*
X142620000Y-75489605D01*
X141177291Y-76932314D01*
X119172709Y-76932314D01*
X117730000Y-75489605D01*
X116287291Y-76932314D01*
X112312709Y-76932314D01*
X110870000Y-75489605D01*
X109427291Y-76932314D01*
X99949000Y-76932314D01*
X99949000Y-74890426D01*
X108578327Y-74890426D01*
X108592206Y-75799350D01*
X108913334Y-76574621D01*
X109247686Y-76752709D01*
X110690395Y-75310000D01*
X111049605Y-75310000D01*
X112492314Y-76752709D01*
X112826666Y-76574621D01*
X113161673Y-75729574D01*
X113148860Y-74890426D01*
X115438327Y-74890426D01*
X115452206Y-75799350D01*
X115773334Y-76574621D01*
X116107686Y-76752709D01*
X117550395Y-75310000D01*
X117909605Y-75310000D01*
X119352314Y-76752709D01*
X119686666Y-76574621D01*
X120021673Y-75729574D01*
X120008860Y-74890426D01*
X140328327Y-74890426D01*
X140342206Y-75799350D01*
X140663334Y-76574621D01*
X140997686Y-76752709D01*
X142440395Y-75310000D01*
X142799605Y-75310000D01*
X144242314Y-76752709D01*
X144576666Y-76574621D01*
X144911673Y-75729574D01*
X144898860Y-74890426D01*
X147188327Y-74890426D01*
X147202206Y-75799350D01*
X147523334Y-76574621D01*
X147857686Y-76752709D01*
X149300395Y-75310000D01*
X149659605Y-75310000D01*
X151102314Y-76752709D01*
X151436666Y-76574621D01*
X151771673Y-75729574D01*
X151758860Y-74890426D01*
X172078327Y-74890426D01*
X172092206Y-75799350D01*
X172413334Y-76574621D01*
X172747686Y-76752709D01*
X174190395Y-75310000D01*
X174549605Y-75310000D01*
X175992314Y-76752709D01*
X176326666Y-76574621D01*
X176661673Y-75729574D01*
X176648860Y-74890426D01*
X178938327Y-74890426D01*
X178952206Y-75799350D01*
X179273334Y-76574621D01*
X179607686Y-76752709D01*
X181050395Y-75310000D01*
X181409605Y-75310000D01*
X182852314Y-76752709D01*
X183186666Y-76574621D01*
X183521673Y-75729574D01*
X183507794Y-74820650D01*
X183186666Y-74045379D01*
X182852314Y-73867291D01*
X181409605Y-75310000D01*
X181050395Y-75310000D01*
X179607686Y-73867291D01*
X179273334Y-74045379D01*
X178938327Y-74890426D01*
X176648860Y-74890426D01*
X176647794Y-74820650D01*
X176326666Y-74045379D01*
X175992314Y-73867291D01*
X174549605Y-75310000D01*
X174190395Y-75310000D01*
X172747686Y-73867291D01*
X172413334Y-74045379D01*
X172078327Y-74890426D01*
X151758860Y-74890426D01*
X151757794Y-74820650D01*
X151436666Y-74045379D01*
X151102314Y-73867291D01*
X149659605Y-75310000D01*
X149300395Y-75310000D01*
X147857686Y-73867291D01*
X147523334Y-74045379D01*
X147188327Y-74890426D01*
X144898860Y-74890426D01*
X144897794Y-74820650D01*
X144576666Y-74045379D01*
X144242314Y-73867291D01*
X142799605Y-75310000D01*
X142440395Y-75310000D01*
X140997686Y-73867291D01*
X140663334Y-74045379D01*
X140328327Y-74890426D01*
X120008860Y-74890426D01*
X120007794Y-74820650D01*
X119686666Y-74045379D01*
X119352314Y-73867291D01*
X117909605Y-75310000D01*
X117550395Y-75310000D01*
X116107686Y-73867291D01*
X115773334Y-74045379D01*
X115438327Y-74890426D01*
X113148860Y-74890426D01*
X113147794Y-74820650D01*
X112826666Y-74045379D01*
X112492314Y-73867291D01*
X111049605Y-75310000D01*
X110690395Y-75310000D01*
X109247686Y-73867291D01*
X108913334Y-74045379D01*
X108578327Y-74890426D01*
X99949000Y-74890426D01*
X99949000Y-73687686D01*
X109427291Y-73687686D01*
X110870000Y-75130395D01*
X112312709Y-73687686D01*
X116287291Y-73687686D01*
X117730000Y-75130395D01*
X119172709Y-73687686D01*
X141177291Y-73687686D01*
X142620000Y-75130395D01*
X144062709Y-73687686D01*
X148037291Y-73687686D01*
X149480000Y-75130395D01*
X150922709Y-73687686D01*
X172927291Y-73687686D01*
X174370000Y-75130395D01*
X175812709Y-73687686D01*
X179787291Y-73687686D01*
X181230000Y-75130395D01*
X182672709Y-73687686D01*
X182494621Y-73353334D01*
X181649574Y-73018327D01*
X180740650Y-73032206D01*
X179965379Y-73353334D01*
X179787291Y-73687686D01*
X175812709Y-73687686D01*
X175634621Y-73353334D01*
X174789574Y-73018327D01*
X173880650Y-73032206D01*
X173105379Y-73353334D01*
X172927291Y-73687686D01*
X150922709Y-73687686D01*
X150744621Y-73353334D01*
X149899574Y-73018327D01*
X148990650Y-73032206D01*
X148215379Y-73353334D01*
X148037291Y-73687686D01*
X144062709Y-73687686D01*
X143884621Y-73353334D01*
X143039574Y-73018327D01*
X142130650Y-73032206D01*
X141355379Y-73353334D01*
X141177291Y-73687686D01*
X119172709Y-73687686D01*
X118994621Y-73353334D01*
X118149574Y-73018327D01*
X117240650Y-73032206D01*
X116465379Y-73353334D01*
X116287291Y-73687686D01*
X112312709Y-73687686D01*
X112134621Y-73353334D01*
X111289574Y-73018327D01*
X110380650Y-73032206D01*
X109605379Y-73353334D01*
X109427291Y-73687686D01*
X99949000Y-73687686D01*
X99949000Y-72218030D01*
X102764375Y-72218030D01*
X103106966Y-72692677D01*
X104440200Y-73252742D01*
X105886275Y-73259968D01*
X107225039Y-72713254D01*
X107255834Y-72692677D01*
X107598425Y-72218030D01*
X121001575Y-72218030D01*
X121344166Y-72692677D01*
X122677400Y-73252742D01*
X124123475Y-73259968D01*
X125462239Y-72713254D01*
X125493034Y-72692677D01*
X125835625Y-72218030D01*
X134514375Y-72218030D01*
X134856966Y-72692677D01*
X136190200Y-73252742D01*
X137636275Y-73259968D01*
X138975039Y-72713254D01*
X139005834Y-72692677D01*
X139348425Y-72218030D01*
X152751575Y-72218030D01*
X153094166Y-72692677D01*
X154427400Y-73252742D01*
X155873475Y-73259968D01*
X157212239Y-72713254D01*
X157243034Y-72692677D01*
X157585625Y-72218030D01*
X166264375Y-72218030D01*
X166606966Y-72692677D01*
X167940200Y-73252742D01*
X169386275Y-73259968D01*
X170725039Y-72713254D01*
X170755834Y-72692677D01*
X171098425Y-72218030D01*
X184501575Y-72218030D01*
X184844166Y-72692677D01*
X186177400Y-73252742D01*
X187623475Y-73259968D01*
X188962239Y-72713254D01*
X188993034Y-72692677D01*
X189335625Y-72218030D01*
X186918600Y-69801005D01*
X184501575Y-72218030D01*
X171098425Y-72218030D01*
X168681400Y-69801005D01*
X166264375Y-72218030D01*
X157585625Y-72218030D01*
X155168600Y-69801005D01*
X152751575Y-72218030D01*
X139348425Y-72218030D01*
X136931400Y-69801005D01*
X134514375Y-72218030D01*
X125835625Y-72218030D01*
X123418600Y-69801005D01*
X121001575Y-72218030D01*
X107598425Y-72218030D01*
X105181400Y-69801005D01*
X102764375Y-72218030D01*
X99949000Y-72218030D01*
X99949000Y-70326275D01*
X101542832Y-70326275D01*
X102089546Y-71665039D01*
X102110123Y-71695834D01*
X102584770Y-72038425D01*
X105001795Y-69621400D01*
X105361005Y-69621400D01*
X107778030Y-72038425D01*
X108252677Y-71695834D01*
X108812742Y-70362600D01*
X108812923Y-70326275D01*
X119780032Y-70326275D01*
X120326746Y-71665039D01*
X120347323Y-71695834D01*
X120821970Y-72038425D01*
X123238995Y-69621400D01*
X123598205Y-69621400D01*
X126015230Y-72038425D01*
X126489877Y-71695834D01*
X127049942Y-70362600D01*
X127050123Y-70326275D01*
X133292832Y-70326275D01*
X133839546Y-71665039D01*
X133860123Y-71695834D01*
X134334770Y-72038425D01*
X136751795Y-69621400D01*
X137111005Y-69621400D01*
X139528030Y-72038425D01*
X140002677Y-71695834D01*
X140562742Y-70362600D01*
X140562923Y-70326275D01*
X151530032Y-70326275D01*
X152076746Y-71665039D01*
X152097323Y-71695834D01*
X152571970Y-72038425D01*
X154988995Y-69621400D01*
X155348205Y-69621400D01*
X157765230Y-72038425D01*
X158239877Y-71695834D01*
X158799942Y-70362600D01*
X158800123Y-70326275D01*
X165042832Y-70326275D01*
X165589546Y-71665039D01*
X165610123Y-71695834D01*
X166084770Y-72038425D01*
X168501795Y-69621400D01*
X168861005Y-69621400D01*
X171278030Y-72038425D01*
X171752677Y-71695834D01*
X172312742Y-70362600D01*
X172312923Y-70326275D01*
X183280032Y-70326275D01*
X183826746Y-71665039D01*
X183847323Y-71695834D01*
X184321970Y-72038425D01*
X186738995Y-69621400D01*
X187098205Y-69621400D01*
X189515230Y-72038425D01*
X189989877Y-71695834D01*
X190549942Y-70362600D01*
X190557168Y-68916525D01*
X190010454Y-67577761D01*
X189989877Y-67546966D01*
X189515230Y-67204375D01*
X187098205Y-69621400D01*
X186738995Y-69621400D01*
X184321970Y-67204375D01*
X183847323Y-67546966D01*
X183287258Y-68880200D01*
X183280032Y-70326275D01*
X172312923Y-70326275D01*
X172319968Y-68916525D01*
X171773254Y-67577761D01*
X171752677Y-67546966D01*
X171278030Y-67204375D01*
X168861005Y-69621400D01*
X168501795Y-69621400D01*
X166084770Y-67204375D01*
X165610123Y-67546966D01*
X165050058Y-68880200D01*
X165042832Y-70326275D01*
X158800123Y-70326275D01*
X158807168Y-68916525D01*
X158260454Y-67577761D01*
X158239877Y-67546966D01*
X157765230Y-67204375D01*
X155348205Y-69621400D01*
X154988995Y-69621400D01*
X152571970Y-67204375D01*
X152097323Y-67546966D01*
X151537258Y-68880200D01*
X151530032Y-70326275D01*
X140562923Y-70326275D01*
X140569968Y-68916525D01*
X140023254Y-67577761D01*
X140002677Y-67546966D01*
X139528030Y-67204375D01*
X137111005Y-69621400D01*
X136751795Y-69621400D01*
X134334770Y-67204375D01*
X133860123Y-67546966D01*
X133300058Y-68880200D01*
X133292832Y-70326275D01*
X127050123Y-70326275D01*
X127057168Y-68916525D01*
X126510454Y-67577761D01*
X126489877Y-67546966D01*
X126015230Y-67204375D01*
X123598205Y-69621400D01*
X123238995Y-69621400D01*
X120821970Y-67204375D01*
X120347323Y-67546966D01*
X119787258Y-68880200D01*
X119780032Y-70326275D01*
X108812923Y-70326275D01*
X108819968Y-68916525D01*
X108273254Y-67577761D01*
X108252677Y-67546966D01*
X107778030Y-67204375D01*
X105361005Y-69621400D01*
X105001795Y-69621400D01*
X102584770Y-67204375D01*
X102110123Y-67546966D01*
X101550058Y-68880200D01*
X101542832Y-70326275D01*
X99949000Y-70326275D01*
X99949000Y-67024770D01*
X102764375Y-67024770D01*
X105181400Y-69441795D01*
X107598425Y-67024770D01*
X121001575Y-67024770D01*
X123418600Y-69441795D01*
X125835625Y-67024770D01*
X134514375Y-67024770D01*
X136931400Y-69441795D01*
X139348425Y-67024770D01*
X152751575Y-67024770D01*
X155168600Y-69441795D01*
X157585625Y-67024770D01*
X166264375Y-67024770D01*
X168681400Y-69441795D01*
X171098425Y-67024770D01*
X184501575Y-67024770D01*
X186918600Y-69441795D01*
X189335625Y-67024770D01*
X188993034Y-66550123D01*
X187659800Y-65990058D01*
X186213725Y-65982832D01*
X184874961Y-66529546D01*
X184844166Y-66550123D01*
X184501575Y-67024770D01*
X171098425Y-67024770D01*
X170755834Y-66550123D01*
X169422600Y-65990058D01*
X167976525Y-65982832D01*
X166637761Y-66529546D01*
X166606966Y-66550123D01*
X166264375Y-67024770D01*
X157585625Y-67024770D01*
X157243034Y-66550123D01*
X155909800Y-65990058D01*
X154463725Y-65982832D01*
X153124961Y-66529546D01*
X153094166Y-66550123D01*
X152751575Y-67024770D01*
X139348425Y-67024770D01*
X139005834Y-66550123D01*
X137672600Y-65990058D01*
X136226525Y-65982832D01*
X134887761Y-66529546D01*
X134856966Y-66550123D01*
X134514375Y-67024770D01*
X125835625Y-67024770D01*
X125493034Y-66550123D01*
X124159800Y-65990058D01*
X122713725Y-65982832D01*
X121374961Y-66529546D01*
X121344166Y-66550123D01*
X121001575Y-67024770D01*
X107598425Y-67024770D01*
X107255834Y-66550123D01*
X105922600Y-65990058D01*
X104476525Y-65982832D01*
X103137761Y-66529546D01*
X103106966Y-66550123D01*
X102764375Y-67024770D01*
X99949000Y-67024770D01*
X99949000Y-64185000D01*
X118921800Y-64185000D01*
X196723000Y-64388668D01*
M02*
