M48
;DRILL file {KiCad (2017-09-22 revision df472e6)-master} date Sat May 12 20:11:57 2018
;FORMAT={-:-/ absolute / inch / decimal}
FMAT,2
INCH,TZ
T1C0.016
T2C0.024
T3C0.028
T4C0.040
T5C0.055
T6C0.075
T7C0.099
T8C0.162
%
G90
G05
M72
T1
X5.04Y-4.49
T2
X5.83Y-4.25
X5.83Y-4.3
X5.83Y-4.35
X6.07Y-3.96
X6.07Y-4.01
X6.07Y-4.06
T3
X4.77Y-4.274
X4.77Y-4.4
X4.896Y-4.274
X4.896Y-4.4
X4.9826Y-4.274
X4.9826Y-4.4
X5.0692Y-4.4
X5.0716Y-4.274
X6.334Y-3.8084
X6.334Y-3.8974
X6.334Y-3.984
X6.334Y-4.11
X6.46Y-3.8108
X6.46Y-3.8974
X6.46Y-3.984
X6.46Y-4.11
X5.35Y-3.77
X5.35Y-3.896
X5.35Y-3.9826
X5.35Y-4.0692
X5.476Y-3.77
X5.476Y-3.896
X5.476Y-3.9826
X5.476Y-4.0716
T4
X6.8346Y-4.6772
X6.9346Y-4.6772
X7.0346Y-4.6772
X7.1346Y-4.6772
X7.2346Y-4.6772
X7.3346Y-4.6772
X6.02Y-4.43
X6.12Y-4.43
X6.22Y-4.43
T5
X7.Y-3.1
X5.75Y-3.1
X4.5Y-3.1
T6
X4.17Y-4.4
X4.17Y-4.6
X4.27Y-4.5
X4.37Y-4.4
X4.37Y-4.6
X5.35Y-4.4
X5.35Y-4.6
X5.45Y-4.5
X5.55Y-4.4
X5.55Y-4.6
T7
X6.865Y-2.965
X6.865Y-3.235
X7.135Y-2.965
X7.135Y-3.235
X5.615Y-2.965
X5.615Y-3.235
X5.885Y-2.965
X5.885Y-3.235
X4.365Y-2.965
X4.365Y-3.235
X4.635Y-2.965
X4.635Y-3.235
T8
X6.641Y-2.741
X6.641Y-3.459
X7.359Y-2.741
X7.359Y-3.459
X5.391Y-2.741
X5.391Y-3.459
X6.109Y-2.741
X6.109Y-3.459
X4.141Y-2.741
X4.141Y-3.459
X4.859Y-2.741
X4.859Y-3.459
T0
M30
